<?xml version="1.0" encoding="utf-8"?>
<!-- Generator: Adobe Illustrator 19.0.0, SVG Export Plug-In . SVG Version: 6.00 Build 0)  -->
<svg version="1.1" xmlns="http://www.w3.org/2000/svg" xmlns:xlink="http://www.w3.org/1999/xlink" x="0px" y="0px"
	 viewBox="0 0 320 320" style="enable-background:new 0 0 320 320;" xml:space="preserve">
<style type="text/css">
	.st0{display:none;}
	.st1{display:inline;fill:none;stroke:#000000;stroke-width:1.613;stroke-linejoin:round;stroke-miterlimit:10;}
	.st2{display:inline;fill:none;stroke:#000000;stroke-width:0.7095;stroke-miterlimit:10;}
	.st3{display:inline;fill:#F5F5F5;}
	.st4{display:inline;fill:none;stroke:#000000;stroke-miterlimit:10;}
	.st5{display:inline;fill:none;stroke:#000000;stroke-width:0.8535;stroke-miterlimit:10;}
	.st6{fill:#FFFFFF;}
	.st7{fill:#F9C174;}
	.st8{fill:#BB9157;}
	.st9{fill:#FEFBC4;}
	.st10{fill:#D69644;}
	.st11{fill:none;stroke:#424242;stroke-width:3;stroke-linecap:round;stroke-miterlimit:10;}
	.st12{fill:#FFF5E0;}
	.st13{fill:#756A68;}
	.st14{fill:#424242;}
	.st15{fill:#FACD90;}
	.st16{fill:#FBDAAC;}
	.st17{fill:#757575;}
	.st18{fill:none;stroke:#FBDAAC;stroke-width:2;stroke-linecap:round;stroke-miterlimit:10;}
</style>
<g id="raw" class="st0">
	<path id="XMLID_271_" class="st1" d="M513.4-61.6c-1.1-1.4-11.8-20.1-15.2-25.1c-0.1,1.8-1.3,5.6-1.9,7.5
		C485-83.5,474-84,460.9-78.8c-0.6-0.8-7.2-7.1-7.2-7c-2.6,4.5-6.4,9.9-10.4,15.4c-2.9,4-6,6.4-10.8,8.2c-3.7,1.4-7.8,1.9-11.7,2.5
		c-19.1,3-30.5,6.1-43.4,13.9c-12.2,7.4-20.2,15.5-22.3,30.5c-1.3,9,1.8,17.1,7.1,24.2c5.4,7.3,15.1,9.6,23.6,11.1
		c16.2,2.8,26.7,3.1,43.1,2.9c16.9-0.2,33.9-1.2,50.5-4.7c9.8-2.1,20-4.7,28.5-10.3C531.1-7.4,525.6-40.8,513.4-61.6z"/>
	<path id="XMLID_277_" class="st2" d="M238.1-158.2c2.2,2.9,4.4,5.8,6.6,8.8"/>
	<path id="XMLID_278_" class="st2" d="M236.9-158c4.2-0.4,8.3-1.7,11.9-3.8c-0.6,5.3-2.9,10.3-6.5,14.2"/>
	<path id="XMLID_279_" class="st2" d="M244-149.7c-2.1,3.8-6.6,6.2-10.9,5.6"/>
	<path id="XMLID_280_" class="st2" d="M243.9-151.2c-0.6,1.9,0.8,4,2.6,4.9c1.8,0.9,3.9,0.9,6,0.8"/>
	<path id="XMLID_281_" class="st2" d="M126.6-187.3c3.3-10.8-0.2-40.5-0.9-51.7c6.2,0.2,11.9,3.3,17,6.8c5.1,3.5,9.9,7.6,15.5,10.3"
		/>
	<path id="XMLID_282_" class="st2" d="M155.5-222.6c33.5-14.3,62.7-18.8,97.4-7.7c6.4,2,18.5,8.5,22.7,13.7
		c11.8,14.6,5.4,34.8,16,49.7c2.6,3.6,5,7.6,4,11.9c-0.6,2.8-2,4.9-4.2,6.6c-14.9,11.3-33.8,17.4-52.5,16.8"/>
	<path id="XMLID_284_" class="st2" d="M230.9-234.4c-0.1,0.4-0.8,0.2-0.8-0.2c0-0.4,0.4-0.7,0.7-0.9c10.2-6.2,21.2-11.1,32.6-14.5
		c2.5,8.4,3.2,17.4,1.9,26"/>
	<path id="XMLID_285_" class="st2" d="M135.5-200.5c0.2-6.9,0.5-13.8,0.7-20.7c6.5,2.1,12.8,5.1,18.6,8.9"/>
	<path id="XMLID_286_" class="st2" d="M155.7-125.5c6.2,12.1,20,12.5,30.6,15.2c16.3,4.2,33.5,4.7,50,1.5"/>
	<path id="XMLID_287_" class="st2" d="M126.8-191c-3.7,26.9,0.4,41.5-11.8,57.7c7.5-2.3,15.1-4.3,22.8-5.9c-0.3,7.2-1.9,14.4-4.9,21
		c18.9-10.1,41.5-8.8,62.9-8.5c3,0,6.8-0.5,7.8-3.3"/>
	<path id="XMLID_288_" class="st2" d="M232.3-107.5c3.5-0.9,7-1.9,9.9-4.1c2.8-2.2,4.8-6,3.8-9.4c-1.4-4.8-7.1-6.6-12.1-7.3
		c-7.8-1.2-15.7-1.9-23.6-2.3"/>
	<path id="XMLID_275_" class="st2" d="M229.6-160.6c-19.2-6.8-39.1-11.5-59.3-13.9"/>
	<path id="XMLID_276_" class="st2" d="M253.9-166c-0.6,0.4-1.1,0.8-1.7,1.3c8-11.6,19.6-20.7,32.8-25.7"/>
	<path id="XMLID_289_" class="st2" d="M283.8-142.8c3,2,4.5,5.8,4.1,9.3c-0.3,3.6-2.3,6.8-4.8,9.4c-7.1,7-18.1,8.1-28,7.5
		c-1.6-0.1-3.3-0.2-4.7-1.1c-2.6-1.6-3.4-5.1-2.6-8c0.8-2.9,2.7-5.4,4.7-7.7"/>
	<path id="XMLID_291_" class="st2" d="M420.7-162.7c13.2-5.7,29.5-3.2,40.3,6.2c-0.6,0.1-1.1,0.1-1.7,0.2"/>
	<path id="XMLID_292_" class="st2" d="M390.3-166.2c6.3,1.6,12.4,4.3,17.9,7.8c-6.1,2.5-11.8,5.9-16.8,10.1
		c-0.1-4.6-0.3-9.3-0.4-13.9"/>
	<path id="XMLID_293_" class="st2" d="M361.5-157c-1.3,1.6-0.9,4.1,0.3,5.7s3.1,2.6,5,3.4c7.6,3,16.4,2.7,23.9-0.6
		c-1.7,6.8,3.6,13.8,10,16.5s13.8,2.2,20.8,1.7c0.8-0.1,1.7-0.1,2.3-0.7s0.9-1.6,0.3-2.1"/>
	<path id="XMLID_290_" class="st2" d="M393.5-174.9c-2.6-3.9-5.5-7.7-8.6-11.3c-2.2-2.6-4.7-5-7.7-6.6s-6.7-2.2-9.8-0.8"/>
	<path id="XMLID_294_" class="st2" d="M375.2-200.2c-4.5,8.7-14.8,12.4-24.1,15.5c-4.9,1.6-10.3,3.6-12.8,8.1c-2,3.4-1.8,7.7-1,11.5
		s2.5,7.5,3.4,11.3"/>
	<path id="XMLID_295_" class="st2" d="M375-199.1c13.6-5.3,27.9-10.7,42.3-9c12.2,1.4,23.3,7.7,33,15.2c15,11.7,28,28.4,28.1,47.4"
		/>
	<path id="XMLID_296_" class="st2" d="M375.6-199.7c6.6-9.1,12-19.1,15.9-29.6c3.9,7,8.8,13.6,14.4,19.4"/>
	<path id="XMLID_297_" class="st2" d="M465.9-176.9c13.4-3.3,27.3-4.9,41.1-4.5c-7.9,14.1-21.2,25.2-26.4,40.5"/>
	<path id="XMLID_298_" class="st2" d="M469.8-172.1c8.3-0.7,16.7-0.8,25-0.3c-7.4,6-14,13-19.4,20.8"/>
	<path id="XMLID_299_" class="st2" d="M381.4-202.9c2.8-4.9,4.8-10.2,6-15.7c4.7,4.7,8.7,10.1,11.9,15.9"/>
	<path id="XMLID_300_" class="st2" d="M484.1-143.9c-1.6,0.3-2.7,1.8-3.6,3.1c-8,12.4-12.8,26.8-13.8,41.5
		c-7.5-3.7-15.6-6.1-23.9-7.1c2.7,1.4,5.6,3.1,6.3,6c-7.1-1.4-14.1-2.9-21.2-4.3c-1.8-0.4-3.9-1.1-4.1-2.8"/>
</g>
<g id="Layer_2" class="st0">
	<rect id="XMLID_272_" x="-462" y="397" class="st3" width="407" height="46"/>
	<rect id="XMLID_274_" x="-462" y="347" class="st3" width="407" height="46"/>
	<rect id="XMLID_301_" x="-462" y="264" class="st3" width="407" height="46"/>
	<rect id="XMLID_306_" x="-462" y="131" class="st3" width="407" height="46"/>
	<rect id="XMLID_307_" x="-462" y="29" class="st3" width="407" height="32"/>
	<rect id="XMLID_308_" x="-463" y="-13" class="st3" width="407" height="33"/>
	<rect id="XMLID_309_" x="-462" y="-99" class="st3" width="407" height="36"/>
	<rect id="XMLID_310_" x="-462" y="-143" class="st3" width="407" height="37"/>
</g>
<g id="Layer_6" class="st0">
	<path id="XMLID_1_" class="st2" d="M-387.4-125.8c-1.1-1.1-2-2.5-2.6-4C-389.1-128.5-388.3-127.1-387.4-125.8"/>
	<line id="XMLID_2_" class="st4" x1="-385.5" y1="-130" x2="-385.5" y2="-129"/>
	<path id="XMLID_3_" class="st2" d="M-383.8-129c-1.3,0.7-2.8,0.8-4.3,1c-1.4,0.3-3,0.8-3.8,2s-0.6,3.2,0.8,3.7
		c1.9,0.7,3.3-1.7,3.9-3.6c0.9-2.9,1.7-5.9,1.7-9s-0.8-6.2-2.8-8.5c-0.4,4.2-0.1,8.5,1.1,12.5c0.8,2.7,2.4,5.7,5.2,6
		c0-0.5,0.1-1,0.1-1.5"/>
	<path id="XMLID_4_" class="st2" d="M-384.2-127c2.1,0.7,3.5,3,3.1,5.1c0.1-1-0.1-2-0.2-3.1c0-1,0.1-2.1,0.7-2.9
		c0.6-0.8,1.8-1.2,2.7-0.7c0.9,0.5,0.9,2.1-0.1,2.5c-0.9,0.3-1.8-0.6-1.7-1.5s1.1-1.6,2-1.6c0.9,0,1.8,0.5,2.4,1.1
		c0.6,0.6,1.1,1.4,1,2.2s-0.8,1.7-1.6,1.6c-0.8-0.1-1.3-0.9-1.5-1.6c-0.3-0.8-0.4-1.6-0.1-2.4c0.4-0.7,1.4-1.1,2-0.5"/>
	<path id="XMLID_5_" class="st2" d="M-372.4-128.5c0.5,4,0.9,7.9,1.4,11.9"/>
	<path id="XMLID_6_" class="st2" d="M-376.3-128.8c-0.4-1.2,1.1-2.4,2.2-2c1.2,0.4,1.9,1.7,2,2.9c0.2,1.8-0.8,3.8-2.6,4.1
		c-1.8,0.3-3.5-2.1-2.2-3.4"/>
	<path id="XMLID_7_" class="st2" d="M-366.8-138.1c-0.3-0.5,0-1.2,0.5-1.4c1.1,4.2,1.5,8.6,1.2,12.9"/>
	<path id="XMLID_8_" class="st2" d="M-363.2-128.5c1.4-0.4,2.8-1.1,4-1.9c-1.6,0.5-2.7,2.2-2.6,3.8c2.9,1.4,7-1,7.1-4.2"/>
	<path id="XMLID_9_" class="st2" d="M-356.9-139.5c0.6,5.5,1.3,11,1.9,16.5"/>
	<path id="XMLID_10_" class="st2" d="M-360.1-129.1c1.7-0.5,3.4-0.9,5.1-1.4c0.9-0.2,1.8-0.5,2.7-0.2c0.9,0.3,1.6,1.3,1.2,2.1"/>
	<path id="XMLID_11_" class="st2" d="M-350.8-125.7c2.5-1.5,5.3-2.7,8.2-3.4"/>
	<path id="XMLID_12_" class="st2" d="M-336.8-135c0.9,3.6,1.4,7.3,1.5,11.1"/>
	<path id="XMLID_13_" class="st2" d="M-403.6-177.1c0,0.1,0.1,0.2,0.1,0.3c-0.5-3.6-0.6-7.2-0.3-10.8c0.1-1.4,0.4-3,1.6-3.7
		s3.2,0.5,2.5,1.7"/>
	<path id="XMLID_14_" class="st2" d="M-409.1-178c-0.8-0.7-0.6-2,0.1-2.7s1.7-1.1,2.7-1.3c3.6-0.9,7.3-1.2,10.9-1"/>
	<path id="XMLID_15_" class="st2" d="M-394.3-190.3c-0.6,5.7,0.6,11.5,3.3,16.6"/>
	<path id="XMLID_16_" class="st2" d="M-389.3-176.7c-0.2-1-0.4-2,0-2.9s1.7-1.5,2.4-0.8c0.3,0.3,0.5,0.7,0.6,1.1
		c0.4,2-0.5,4.3-2.2,5.4c-0.7-1.2-1.4-2.4-1.6-3.7s0-2.9,1-3.8"/>
	<path id="XMLID_17_" class="st2" d="M-381.7-180.7c0.5-0.2,0.1-1-0.4-1s-0.8,0.6-1,1c-0.5,1.2-0.5,2.5-0.3,3.7
		c1.3-0.7,2.3-1.9,2.6-3.3c0.5,1.3,1.7,2.4,3,3C-378.9-178.6-380.2-179.8-381.7-180.7"/>
	<path id="XMLID_18_" class="st2" d="M-376.4-189.9c1,4.8,2,9.5,2.9,14.3c-0.8-0.6-1.5-1.2-2.3-1.8"/>
	<path id="XMLID_19_" class="st2" d="M-379.3-180.7c1.6-2.2,4.7-3.2,7.3-2.5"/>
	<path id="XMLID_20_" class="st2" d="M-371.1-180.3c0.9,2.2,1.4,4.5,1.4,6.9"/>
	<path id="XMLID_21_" class="st4" d="M-369.5-185c0,0,0-1.7,0-2.5C-369.5-186.7-369.5-185-369.5-185"/>
	<path id="XMLID_22_" class="st2" d="M-367.5-179.3c0.6,1.5,0.8,3.2,0.6,4.9c0.4-1.2,0.8-2.3,1.1-3.5c0.2-0.5,0.6-1.2,1.1-1
		c0.2,0.1,0.4,0.4,0.5,0.6c0.4,0.9,0.7,1.8,1.1,2.7c0.7-1.3,1.4-2.5,2-3.8c0.5,0.2,1,0.4,1.4,0.5c0.5-0.7,0.8-1.6,0.8-2.5
		c-0.2,1.3-0.5,2.6-0.7,3.8c0.8-0.8,1.4-1.9,1.6-3.1c2.4,2.7,3.4,6.6,2.7,10.2c-0.2,0.9-0.5,1.9-1.3,2.5c-1.4,1.1-3.4,0.6-5.1-0.1
		c-1-0.4-2-1-2.5-1.9c-0.5-1,0.1-2.4,1.2-2.4"/>
	<path id="XMLID_23_" class="st2" d="M-346.8-183.5c-0.1,2.8,0,5.7,0.3,8.5c0,0.4,0.2,0.8,0.5,0.9c0.3,0.1,0.7-0.5,0.3-0.6"/>
	<path id="XMLID_24_" class="st2" d="M-351.7-181.8c1.3-1.6,3.4-2.6,5.5-2.6c0.6,0,1.5,0.5,1.1,1"/>
	<path id="XMLID_25_" class="st2" d="M-350.1-174.3c3.2-1.7,6.6-3.1,10.1-4.1"/>
	<path id="XMLID_26_" class="st2" d="M-340.7-187.1c-0.1,3.6,0.5,7.1,1.7,10.5"/>
	<path id="XMLID_27_" class="st2" d="M-342.4-186.1c-0.4-1.2,1.4-1.9,2.6-2c0.7,0,1.5-0.1,2.1,0.2c1.7,0.8,1.4,3.5-0.1,4.6
		c-1.5,1.1-3.5,1.1-5.4,1"/>
	<path id="XMLID_28_" class="st2" d="M-353.7-178c-1.9-0.2,3-0.6,3.5-0.7C-351.4-178.7-352.6-178.4-353.7-178"/>
	<path id="XMLID_29_" class="st2" d="M-335.5-174.9c3.2-1,6.5-1.9,9.7-2.9"/>
	<path id="XMLID_30_" class="st2" d="M-317.6-189c0.3,3.4,0.6,6.7,0.9,10.1"/>
	<path id="XMLID_31_" class="st2" d="M-396.3-254.4c0.3,4.3,0.7,8.5,1,12.8c0,0.6,0.8,1.2,0.9,0.7"/>
	<path id="XMLID_32_" class="st2" d="M-397.6-249.2c-0.2-0.5-0.3-1-0.5-1.5c3.9,0.8,7.4,3.5,9.2,7.1c0.5,1.1,0.9,2.4,0.6,3.7
		c-0.5,1.7-2.2,2.7-3.8,3.5c-3.1,1.4-6.3,2.5-9.6,3.2c0.1-0.8,0.5-1.6,1-2.2"/>
	<path id="XMLID_33_" class="st2" d="M-385.8-240.6c0.5,2.3,0.7,4.5,0.9,6.8c0.1-0.4,0.2-0.9,0.2-1.3"/>
	<path id="XMLID_34_" class="st2" d="M-383.7-247.5c-0.1-0.3,0.5-0.5,0.6-0.2S-383.6-247.1-383.7-247.5"/>
	<path id="XMLID_35_" class="st2" d="M-378.3-239.6c0.9,0.2,1.8,0.3,2.7,0.5c0.6-1.1-0.4-2.5-1.6-2.7c-1.2-0.1-2.4,0.7-2.9,1.8
		s-0.7,2.3-0.8,3.6c1.5-0.7,2.6-2,3.1-3.5c1,1.9,1.5,4.1,1.4,6.2c-0.1,1.1-0.3,2.3-1.1,3.1c-1.6,1.7-4.5,0.9-6.7,0
		c0.4-1,1-1.9,1.8-2.6"/>
	<path id="XMLID_36_" class="st2" d="M-373-241.7c1.3,1.5,1.9,3.7,1.5,5.7"/>
	<path id="XMLID_37_" class="st2" d="M-373.7-246.5c-0.1-0.5,0-1.1,0.4-1.4c0.5,0.3,0.8,0.9,0.9,1.4"/>
	<path id="XMLID_38_" class="st2" d="M-367.3-249.2c0.6,3.6,1,7.2,1,10.8c0,0.8-0.1,1.6-0.6,2.1c-0.4,0.3-0.9,0.4-1.4,0.3
		c-2.2-0.4-2.9-3.6-1.6-5.4c1.3-1.8,3.6-2.6,5.9-2.9c1.1-0.2,2.5-0.2,3.2,0.7"/>
	<path id="XMLID_39_" class="st2" d="M-362.1-240.7c-1,1.6-1.7,3.4-2.1,5.3c1.5-1,2.6-2.5,3.3-4.1c0.2,0.5,0.5,1,0.7,1.5
		c0.4-0.7,0.8-1.5,1.1-2.2"/>
	<path id="XMLID_40_" class="st2" d="M-354.8-249.2c-0.9,3.9-0.9,8-0.1,11.9"/>
	<path id="XMLID_41_" class="st2" d="M-346.2-243.2c-0.4-1.6-0.8-3.4-0.2-5c0.6-1.6,2.6-2.7,4-1.8c0.5,0.3,0.8,0.8,1.1,1.3
		c2.3,4.1,2,9.6-0.8,13.4c-1.6-1.5-3-3.2-3.8-5.2s-0.7-4.4,0.6-6.2s3.8-2.6,5.7-1.6"/>
	<path id="XMLID_42_" class="st2" d="M-332.1-242.5c-3.3-0.4-6.6,2.1-7.2,5.4c-0.1,0.5-0.1,1.1,0.1,1.6c0.5,0.9,1.7,1.1,2.7,1
		c2-0.2,4-1.3,5.2-2.8"/>
	<path id="XMLID_43_" class="st2" d="M-331.6-242.3c-0.2,3-0.4,5.9-0.6,8.9c0,0.4-0.1,0.9,0.2,1.3c0.4,0.5,1.2,0.5,1.9,0.3
		c2.5-0.7,4.6-2.9,5.3-5.4"/>
	<path id="XMLID_44_" class="st2" d="M-331.6-235.2c2.1,0.2,4.2-1.7,4.1-3.9c-1.4,0.3-3,0.6-4,1.7c-1,1.1-0.8,3.2,0.6,3.6
		c0.4,0.1,0.8,0.1,1.2,0c1.7-0.3,3.4-1.1,4.8-2.2"/>
	<path id="XMLID_45_" class="st2" d="M-320.7-241.9c-2,0.4-3.8,2-4.4,4c-0.1,0.4-0.2,1,0.1,1.3c0.6,0.7,1.7-0.1,2.2-0.9
		c0.9-1.4,1.6-2.8,2.2-4.4c0.6,1.3,1.6,2.5,2.8,3.3c-0.8-1.1-1.8-2.1-2.9-2.9"/>
	<path id="XMLID_46_" class="st2" d="M-320.7-241.4c1.6,0,3.1,0.4,4.5,1.1c-0.5,1-0.5,2.2,0,3.2c0.7-0.6,1.3-1.3,2-1.9
		c0.7-0.7,1.6-1.4,2.6-1.3c1,0.1,1.6,1.7,0.7,2.1"/>
	<path id="XMLID_48_" class="st2" d="M-359.6-165.6c-0.8,7-1.4,14-1.6,21c-1.1-1.5-1.6-3.5-1.4-5.3c-0.1,1.5,0.5,2.9,1.5,4
		c0.2,0.2,0.5,0.5,0.8,0.5c0.5,0,0.9-0.5,1.2-1c0.9-1.6,1.8-3.3,2.8-4.9"/>
	<path id="XMLID_49_" class="st2" d="M-366.1-113c0-0.8,0-1.6,0-2.4c-0.2,5.6,0,11.2,0.4,16.8c-1.4-1.2-2.6-2.9-3.2-4.7
		c1,1.3,2,2.6,3,3.9c0.2,0.3,0.5,0.6,0.9,0.6c0.3,0,0.6-0.3,0.8-0.6c0.9-1.2,1.8-2.4,2.7-3.6"/>
	<path id="XMLID_50_" class="st2" d="M-396.3-88c-1.1,0-1.9,1.1-2,2.2c-0.1,1.1,0.3,2.1,0.8,3.1c0.5,1.1,1.2,2.3,2.2,3
		c1,0.7,2.6,0.8,3.5-0.1c0.4-0.4,0.7-1.1,0.9-1.7c0.8-2.3,1.4-4.6,1.9-6.9"/>
	<path id="XMLID_51_" class="st2" d="M-385.3-92.3c0.8,3.2,1.6,6.4,2.4,9.6c1.7-0.5,3.4-1.1,5.2-1.6c0.2-0.1,0.5-0.1,0.7-0.1
		c0.2,0.1,0.3,0.3,0.4,0.5c0.6,1.3-0.4,2.9-1.8,3.2c-1.4,0.3-2.8-0.5-3.5-1.7c-0.4-0.8-0.5-1.9,0-2.7c0.5-0.8,1.7-1,2.4-0.4"/>
	<path id="XMLID_52_" class="st2" d="M-372.3-86.6c-0.9,0.7-1.2,2-0.6,3c0.6,1,1.9,1.4,2.9,0.9c1.7-0.8,1.8-3.2,2.9-4.7"/>
	<path id="XMLID_53_" class="st2" d="M-366.6-88.8c-0.2,0-0.1-0.5,0.2-0.4s0.3,0.4,0.3,0.6c0,1.8,0.1,3.6,0.1,5.4
		c1.4-1.5,2.5-3.2,3.3-5.1c0.5-1,2.2-0.2,2.4,0.9s-0.2,2.3,0.1,3.4c0.1,0.3,0.3,0.6,0.6,0.6s0-0.7-0.2-0.4"/>
	<path id="XMLID_54_" class="st2" d="M-354.8-96.6c0.9,4,1.3,8.2,1.1,12.3c0,0.6-0.5,1.4-1,1"/>
	<path id="XMLID_55_" class="st2" d="M-358.9-87.7c1.6-0.5,3.1-0.9,4.7-1.4c1-0.3,2-0.6,2.9-0.3c0.9,0.3,1.6,1.6,1,2.4"/>
	<path id="XMLID_56_" class="st2" d="M-350.1-86c0.3,2.7,1.9,5.7,4.6,5.8c1.7,0.1,3.2-1.1,4.1-2.5c0.9-1.4,1.1-3.1,1.4-4.8
		c-0.2,0.4-0.3,0.7-0.5,1.1"/>
	<path id="XMLID_57_" class="st2" d="M-367.1-80c0.2,5.1,0.4,10.3,0.6,15.4c0,0.3,0,0.7-0.2,0.9c-0.4,0.4-1.1,0.1-1.6-0.3
		c-1.4-1.3-2.1-3.2-1.9-5c1.8-0.3,2.5,2.4,4,3.5c1.2,0.8,2.9,0.5,4-0.4c1.2-0.9,1.9-2.2,2.6-3.4c-0.5,1-1,2.1-1.5,3.1"/>
	<path id="XMLID_58_" class="st2" d="M-382.3-51.1c-1.1,2-2.1,4.4-1.2,6.5c0.9,2.1,3.6,3,5.7,2.4c2.2-0.6,3.8-2.5,4.7-4.6
		c0.9-2.1,1.2-4.4,1.4-6.6"/>
	<path id="XMLID_59_" class="st2" d="M-368.4-55.7c0.9,3.6,1.2,7.3,0.9,11"/>
	<path id="XMLID_60_" class="st2" d="M-369.7-52.1c2.9-1.6,6.2-2.4,9.5-2.3c-0.7,1.1-1.4,2.1-2.1,3.2"/>
	<path id="XMLID_61_" class="st2" d="M-370.6-45.3c-0.4-0.9,0.7-1.8,1.6-2.2c2.8-1.1,5.8-1.8,8.8-1.9"/>
	<path id="XMLID_62_" class="st2" d="M-357.4-55.3c0.2,4.1,0.4,8.2,0.6,12.3c0.8-1.8,1.6-3.7,2.4-5.5c0.2-0.5,0.4-0.9,0.9-1.2
		c0.8-0.5,1.8,0.3,2.4,1.1s1.1,1.7,2.1,1.9c-0.3-3.3,0-6.6,0.8-9.8c0.1-0.3,0.1-0.8-0.2-0.9s-0.4,0.6-0.1,0.4"/>
	<path id="XMLID_63_" class="st2" d="M-367.8-38.3c0.2-0.4,0.8,0.2,0.8,0.6c0.5,5.8,0.6,11.5,0.4,17.3c-0.8-2.3-2.3-4.4-4.2-5.9
		c1.8,1.1,3.3,2.7,4.4,4.6c2.5-2.5,4.1-5.9,4.4-9.4"/>
	<path id="XMLID_64_" class="st2" d="M-398.6,149.6c1.9,3.2,2.7,7,2.2,10.7c1.4-2.7,2.8-5.5,4.2-8.2c0.3-0.6,0.7-1.2,1.3-1.1
		c0.6,0.1,0.9,0.8,1,1.5c0.4,2.3,0.5,4.6,0.3,6.9"/>
	<path id="XMLID_65_" class="st2" d="M-385,156.4c0.2-1,0.5-2,1.1-2.7s1.9-1.1,2.7-0.4c0.5,0.4,0.6,1,0.7,1.6c0.3,2-0.1,4.2-1.1,6
		c-0.2,0.3-0.5,0.7-0.9,0.8c-0.5,0.1-1-0.3-1.3-0.7c-1.2-1.5-1.6-3.6-1-5.4"/>
	<path id="XMLID_66_" class="st2" d="M-372.2,154.2c1.2,0,2.3,0,3.5,0c-2.4-0.2-5.1,0.2-6.9,1.9c-1.7,1.7-1.7,5.2,0.5,6.3
		c2.5-0.5,3.7-3.3,4.2-5.9c1-5.1,0.7-10.5-0.9-15.5c-0.9,5.4-0.5,11.1,1.3,16.3"/>
	<path id="XMLID_67_" class="st2" d="M-367.1,159.2c2.2,0.3,4.5-0.8,5.6-2.6c0.2-0.3,0.4-0.7,0.4-1.1c-0.1-0.9-1.4-1.2-2.1-0.7
		s-1.1,1.4-1.3,2.2c-0.4,1.3-0.6,3,0.4,4c1.1,1.2,3.1,0.8,4.4,0c2.2-1.3,3.8-3.5,4.5-5.9"/>
	<path id="XMLID_68_" class="st2" d="M-349,152.4c0.8,3.9,1.6,8,1,11.9c-0.6,4.4-3,8.5-6.5,11.2c-1.2,0.9-2.7,1.8-4.2,1.6
		c-1.8-0.2-3.2-1.7-3.8-3.4c-0.6-1.7-0.5-3.5-0.5-5.3"/>
	<path id="XMLID_69_" class="st2" d="M-340.7,150.3c0.3-0.1,0.1-0.7-0.2-0.7s-0.6,0.3-0.8,0.6c-0.8,1.1-1.3,2.3-1.7,3.6
		c3,1,6.2,1.5,9.3,1.5c-2.7,3.9-7.2,6.2-11.5,8.4"/>
	<path id="XMLID_84_" class="st2" d="M-455.9,152.8c-0.4,0.1-0.8,0.2-1.2,0.4c5.1,0.8,10.5,0.1,15.1-2.2"/>
	<line id="XMLID_85_" class="st4" x1="-449" y1="156.5" x2="-438" y2="156.5"/>
	<path id="XMLID_86_" class="st2" d="M-445.4,163.4c2.1-0.5,4.3-1,6.4-1.4"/>
	<path id="XMLID_87_" class="st2" d="M-463.1-88.3c6.7,0,13.4,0.3,20.1,1"/>
	<path id="XMLID_88_" class="st2" d="M-451.7-81.9c3.7,0.3,7.5-0.2,11-1.3"/>
	<path id="XMLID_89_" class="st2" d="M-450.3-72.7c2.4-0.8,4.9-1.5,7.3-2.3"/>
	<path id="XMLID_90_" class="st2" d="M-464.4-129.2c6.4-1.2,12.9-2,19.5-2.2c0.7,0,1.7,0.3,1.5,1"/>
	<path id="XMLID_91_" class="st2" d="M-452.6-124.2c3.6-0.5,7.2-1.1,10.7-1.6c-0.8,1.1-1.6,2.1-2.5,3.2"/>
	<path id="XMLID_92_" class="st2" d="M-449.8-117.1c1.8-1.1,3.9-1.7,5.9-1.8"/>
	<path id="XMLID_115_" class="st2" d="M-352.6,210.1c-0.4-0.1-0.8,0-1.1,0.3c1.9-0.8,3.2-2.8,3.2-4.8c-1.6-0.2-3.3,0.2-4.4,1.4
		s-1.1,3.3,0.1,4.3c1,0.8,2.4,0.7,3.6,0.6c2.6-0.4,5.2-1.1,7.7-2.3c0.6-0.3,1-1.4,0.4-1.3"/>
	<path id="XMLID_114_" class="st2" d="M-344.2,204.8c3.2,2.1,6.7,3.8,10.3,5c-0.6-0.4-1.2-0.8-1.7-1.2"/>
	<path id="XMLID_113_" class="st2" d="M-337,205.4c-0.9-0.8-2.3-0.3-3.4,0.4c-2.5,1.7-4.7,3.9-6.4,6.4c1.1-0.1,2.2-0.2,3.3-0.3"/>
	<path id="XMLID_112_" class="st2" d="M-332.5,203.6c-1.5,4.6-2.1,9.4-1.9,14.3c0.2-0.9,0.3-1.9,0.5-2.8"/>
	<path id="XMLID_111_" class="st2" d="M-333,204.9c1.8-1.4,4.3-1.7,6.4-0.9c-1.4,3.4-5.2,5.7-8.9,5.3c0.4-1.6,1.3-3.1,2.6-4.3"/>
	<path id="XMLID_110_" class="st2" d="M-325.3,204c1.4-1.1,3.7,0.1,4.2,1.8s0.1,3.6-0.5,5.3c-1.5-3.8,1.9-8.6,5.9-8.5"/>
	<path id="XMLID_109_" class="st2" d="M-316,209.1c2,0.7,4.3-1.2,4.1-3.3c-1.7,0.5-2.4,2.5-2.9,4.3c-0.1,0.3-0.2,0.7,0,1
		c0.3,0.5,1,0.4,1.5,0.3c2.1-0.5,4-1.6,5.6-3.1"/>
	<path id="XMLID_108_" class="st2" d="M-305,205c0.5-0.6,0.7-1.6,0.4-2.3c-1.9,0.6-3.3,2.7-3.1,4.8c1.5,0.3,3.1,0.5,4.6,0.4
		c0,2-1.1,3.9-2.8,4.9"/>
	<path id="XMLID_107_" class="st2" d="M-299.5,204.5c0.6-0.3,1-1,1.1-1.7c-1.6,0.3-1.9,3.1-0.4,3.7c0.7,0.3,1.4,0.1,2.1,0.4
		c1.5,0.6,1.5,2.9,0.4,4.1c-1.1,1.2-2.8,1.5-4.4,1.8c0.3-1.4,1.1-2.7,2.2-3.6"/>
	<path id="XMLID_106_" class="st2" d="M-292.8,202.1c2.8,4.9,3.7,10.8,2.6,16.4c-0.3,1.4-0.8,2.9-1.7,3.9s-2.6,1.7-4,1
		c-1.5-0.7-2-2.8-1.1-4.1"/>
	<line id="XMLID_105_" class="st4" x1="-294.5" y1="199" x2="-294.5" y2="198"/>
	<path id="XMLID_104_" class="st2" d="M-284.4,203.3c1.1-0.3,2.2-0.8,3-1.6c-1.8,0.2-3.5,1.3-4.4,2.9c1.9,1.3,3.9,2.5,5.8,3.8
		c0.7,0.5,1.5,1,1.6,1.9c0.2,1-0.6,1.9-1.5,2.3c-0.9,0.4-1.9,0.4-2.9,0.6c-2.1,0.4-4,1.6-5.2,3.3"/>
	<path id="XMLID_71_" class="st2" d="M-306,246.7c0.3,0.1,0.1-0.6-0.2-0.5c-0.3,0.1-0.3,0.5-0.3,0.8c0,6.6,0.4,13.2,1.4,19.7
		c1.1-0.1,2.2-0.8,2.7-1.7"/>
	<path id="XMLID_72_" class="st2" d="M-306,247.6c-0.7-1.3,1.2-2.8,2.6-2.3s2.1,2,2.5,3.5c0.4,1.6,0.6,3.3-0.1,4.8
		c-1.4,2.8-5.3,3.1-8.4,2.4c-2-0.4-4.5-1.8-4-3.8"/>
	<path id="XMLID_73_" class="st2" d="M-293.3,248.1c-0.6-0.4-1.2-0.8-1.8-1.2c-2.1,2.8-3.4,6.2-3.6,9.7c2.2-1.2,3.8-3.6,3.9-6.2
		c1.5,1.5,3.3,2.7,5.2,3.6"/>
	<path id="XMLID_74_" class="st2" d="M-288.7,247c1.5-1.1,2.9-2.4,4-3.9c-0.9,1-1.9,2-2.2,3.3c-0.3,1.3,0.4,3,1.7,3.2
		c1.1,0.2,2.5-0.5,3.2,0.3c0.3,0.4,0.4,0.9,0.3,1.4c-0.2,2.1-1.7,4-3.7,4.7"/>
	<path id="XMLID_75_" class="st2" d="M-276.5,245.5c0.3-0.6-0.9-0.8-1.2-0.3c-0.4,0.5-0.4,1.3-1,1.6c1.7,0.8,3.6,1.9,3.7,3.8
		c0.1,2.1-2.1,3.4-4,4.2c1.3-0.9,2.7-1.7,4-2.6"/>
	<path id="XMLID_76_" class="st2" d="M-270.8,245c-0.3-0.1,0-0.6,0.2-0.5c0.3,0.1,0.4,0.4,0.5,0.7c1.3,6.7,2.6,13.5,3.9,20.2
		c0.8-0.4,1.2-1.5,0.9-2.3"/>
	<path id="XMLID_77_" class="st2" d="M-269.1,249c-0.7-1.6,0.1-3.8,1.7-4.5c0.4-0.2,0.9-0.3,1.4-0.1c1.3,0.4,1.4,2.3,1,3.6
		c-0.4,1.5-0.9,3-2,4s-2.9,1.4-4.1,0.5c-1.2-0.9-1.1-3.2,0.4-3.6"/>
	<path id="XMLID_78_" class="st2" d="M-261.3,249.8c-0.1-1.2-0.1-2.4,0.5-3.4c1.1-1.5,3.6-1.6,4.8-0.2c1.3,1.4,1.2,3.7,0,5.1
		c-1.7,2-5.3,1.9-6.7-0.4c-1.3-2.2,0.6-5.7,3.2-5.5"/>
	<path id="XMLID_79_" class="st2" d="M-253.4,246.2c-0.5-0.2-0.6-0.9-0.4-1.3c1.1,2.4,2.2,4.7,3.3,7.1c-1.1-1.7-1.1-4,0.1-5.6
		c1.1-1.6,3.3-2.5,5.3-2"/>
	<path id="XMLID_80_" class="st2" d="M-242.9,235.2c0-0.4,0.1-0.9,0.1-1.3c1,4.9,1.9,9.8,2.7,14.7c0.1,0.8,0.1,1.9-0.7,2.2
		c-1.2,0.4-1.6-1.4-1.5-2.6"/>
	<path id="XMLID_81_" class="st2" d="M-249,243.3c3.7-2.7,8.3-4.2,12.9-4.3"/>
	<path id="XMLID_82_" class="st2" d="M-233.7,244.8c1.5,4.4,1.8,9.2,0.9,13.7c-0.2,1-0.6,2.1-1.6,2.4c-0.5,0.1-1,0-1.5-0.2
		c-1.6-0.7-2.5-2.5-2.7-4.2c-0.2-1.7,0.3-3.5,0.7-5.2"/>
	<path id="XMLID_83_" class="st2" d="M-234.7,244.7c-0.1-0.9,1-1.7,1.8-1.4c0.9,0.4,1,1.7,0.3,2.3S-234.5,245.6-234.7,244.7"/>
	<path id="XMLID_157_" class="st2" d="M-225.9,244.1c-0.9,0.5-1.6,1.3-2,2.2c1.7,0.6,3.5,1,5.4,1.1c-0.7,2.8-3.3,5.1-6.2,5.4"/>
	<path id="XMLID_170_" class="st2" d="M-246,285.1c0.5,4,1.4,7.9,2.7,11.7c0-0.5,0-1.1,0.1-1.6"/>
	<path id="XMLID_171_" class="st2" d="M-245,295.6c-0.3-2.7,0.9-5.5,2.9-7.3c2.1-1.8,5-2.5,7.6-1.8"/>
	<path id="XMLID_172_" class="st2" d="M-234.5,291.6c4,1.4,8.9-0.3,11.1-3.9c-1.4-1.2-3.5-1.6-5.2-0.9c-1.7,0.7-3,2.3-3.2,4.2
		c-0.1,0.6,0,1.3,0.3,1.8c0.7,1.2,2.4,1.3,3.8,1.1c3.4-0.5,6.6-2.4,8.8-5.1"/>
	<path id="XMLID_173_" class="st2" d="M-217.6,288.7c1.6,0.4,3.4,0,4.6-1.1c-1.4-1.7-4.3-1.4-5.7,0.2c-1.4,1.7-1.2,4.3,0.1,6
		c0.4,0.6,1,1.1,1.7,1.2c1.8,0.3,2.8-1.9,3.2-3.7c1.1-5.6,0.9-11.5-0.6-17c-0.8,5.6-0.1,11.5,2.1,16.7c0.5,1.1,1.1,2.2,2.1,2.8
		c1.1,0.6,2.7,0.1,2.9-1"/>
	<path id="XMLID_174_" class="st2" d="M-203.8,285.6c-0.3,3.1-0.2,6.3,0.3,9.3C-203.1,291.8-203.3,288.6-203.8,285.6"/>
	<path id="XMLID_175_" class="st2" d="M-205.2,276.4c-0.5-1.7,2-3.1,3.4-2.1c1.4,1,1.2,3.5-0.2,4.5c-1,0.7-2.5,0.7-3.1-0.3
		c-0.6-1,0.7-2.6,1.6-1.9"/>
	<path id="XMLID_176_" class="st2" d="M-196.1,284.6c1.5,0,3,0,4.5,0c-2.3-0.2-4.5,2.2-4,4.5c2,0,4.1,0.1,5.6,1.2s2.2,3.8,0.6,5
		c-0.6,0.5-1.5,0.6-2.3,0.7c-3,0.2-6-0.4-8.6-1.9"/>
	<path id="XMLID_188_" class="st2" d="M-396.8,48.2c0.3,0.4,0.5,0.8,0.8,1.2c0.7,1,1.3,2.1,1.4,3.3c0,1.4-0.6,3.4,0.7,4
		c0.8-4.5,2.3-8.8,4.5-12.9c1.1,3,2.2,5.9,3.4,8.8"/>
	<path id="XMLID_189_" class="st2" d="M-383,47.9c1.7,0.4,3.5-0.8,3.8-2.5c-0.7-0.8-1.9,0.3-2.3,1.3c-0.8,2.1-1.1,4.4-0.9,6.6
		c1.6-0.9,2.9-2.5,3.6-4.2c2.9,3.3,2.8,8.8,0,12.1c-1.1,1.2-2.5,2.2-4.2,2.3c-1.6,0.1-3.4-0.8-3.9-2.3s0.5-3.5,2.1-3.7"/>
	<path id="XMLID_190_" class="st2" d="M-371.8,44.7c0.3,2.9,0.4,5.8,0.2,8.7"/>
	<path id="XMLID_191_" class="st2" d="M-374.4,39.3c0.2-0.7,1.1-1.1,1.7-0.8c0.8,1.8-1.2,4-3,3.5c0.4-0.3,0.9-0.4,1.3-0.4"/>
	<path id="XMLID_192_" class="st2" d="M-367.9,46.7c1-0.9,2.4-1.2,3.6-0.9c-0.1,2.9-0.2,5.7-0.3,8.6c1-3.1,2.7-5.9,5-8.1
		c0.4,1.8,0.8,3.5,1.1,5.3c0.1,0.6,0.3,1.2,0.8,1.5c0.5,0.2,1.3-0.5,0.9-0.9"/>
	<path id="XMLID_193_" class="st2" d="M-355,46.4c4.3,1.5,8.3,4.1,11.3,7.6"/>
	<path id="XMLID_194_" class="st2" d="M-344.5,44.4c-4,5.1-8,10.3-12,15.4"/>
	<path id="XMLID_195_" class="st2" d="M-368.4,112.1c-0.4-0.2-0.6-0.7-0.4-1.2c0,7.6,0,15.2,0,22.8c-2.9-0.9-5.2-3.3-6.1-6.1
		c1.3,2,2.9,3.9,4.8,5.4c0.3,0.2,0.5,0.4,0.8,0.4c0.5,0,0.9-0.3,1.2-0.6c2.7-2.5,4.3-6.1,4.3-9.8"/>
	<path id="XMLID_94_" class="st2" d="M-364.4-225.8c2.4,11.1,3.4,22.5,3,33.9c-2.1-1.9-3.8-4.2-5-6.7c1,1.9,2.3,3.6,3.9,5.2
		c0.3,0.3,0.7,0.6,1.2,0.6c0.5,0,0.8-0.5,1.1-0.9c1.4-2.1,2.8-4.2,4.2-6.3"/>
	<path id="XMLID_47_" class="st2" d="M-271.8,273.5c-0.2,6.7-0.6,13.4-1.3,20.1c9.7-0.2,6.5-0.3,16.2-0.5c1,0,2.1-0.1,2.8-0.8"/>
	<path id="XMLID_70_" class="st2" d="M-326.8,228.9c0,8.4,0,16.7,0.1,25.1c3,0.4,6.1-0.1,8.8-1.6"/>
	<path id="XMLID_95_" class="st2" d="M-349.7,104.8c-0.1-0.6-0.1-1.2-0.2-1.7c-1.6,0.1-3.5,0.4-4,1.9c-0.7,2.1,2.2,3.6,4.4,3.7
		s5.1,0.5,5.6,2.7c0.3,1.3-0.6,2.6-1.8,3.3c-1.2,0.7-2.5,0.8-3.9,0.9c0.6-1.2,1.1-2.5,1.7-3.7"/>
	<path id="XMLID_96_" class="st2" d="M-336,86.1c-1,9.2-1.2,18.5-0.4,27.8c0.1,1.2,1.1,2.9,2.1,2.1"/>
	<path id="XMLID_97_" class="st2" d="M-345.9,102.2c0-1.6,1.6-2.6,3.1-3.2c5.3-2.4,10.8-4.3,16.5-5.6c1-0.2,2-0.4,2.9-0.1
		s1.6,1.4,1.2,2.3"/>
	<path id="XMLID_98_" class="st2" d="M-325.8,106.8c1.5,0.2,2.9,0.4,4.4,0.6c-2.3-0.9-5,0.8-6,3.1s-0.9,4.8-0.7,7.3
		c2.9-3.1,5-6.9,6-11c1.9,0.7,2.6,3,3.3,4.9c0.7,1.9,2.1,4.2,4.1,3.9"/>
	<path id="XMLID_99_" class="st2" d="M-309,86.1c1.3,10.9,1.7,21.9,1.2,32.9c0-2.6,0-5.1,0-7.7"/>
	<path id="XMLID_100_" class="st2" d="M-318,99.1c2,1,4.5,0.7,6.7,0.2s4.5-1.2,6.8-0.8c2.3,0.3,4.5,2.1,4.5,4.4"/>
	<path id="XMLID_101_" class="st2" d="M-298,107.6c2.3,1,3.1,3.8,3.1,6.3c0,2.5-0.4,5.1,0.4,7.4c0.1-0.8,0.1-1.6,0.2-2.4"/>
	<path id="XMLID_102_" class="st2" d="M-294.5,96.3c0.1-0.5-0.7-0.9-1.1-0.5c-0.3,0.4,0.1,1.2,0.7,1"/>
	<path id="XMLID_103_" class="st2" d="M-284.5,110.6c1.3,0.2,2.7-0.8,2.8-2.2c-2.5,0.2-5.2,1.4-6.2,3.8c-1.1,2.3,0.2,5.6,2.7,6.1
		c1.1,0.2,2.3-0.2,3.3-0.6c2.9-1.3,5.3-3.5,7-6.2c-0.2,0.6-0.3,1.1-0.5,1.7"/>
	<path id="XMLID_126_" class="st2" d="M-326.7,256.6c0.1,15.2-0.8,58.5-0.7,73.7c2.6-0.2,5.1-0.4,7.7-0.7"/>
	<path id="XMLID_127_" class="st2" d="M-309.5,330.3c1.7-0.8,3.2-1.9,4.4-3.2c-2-0.1-3.9,1.1-4.8,2.8c-0.8,1.8-0.5,4,0.9,5.5
		c0.7-2.5,1-5.2,0.8-7.8c3.8,0.6,5.6,4.9,6.2,8.7c0.5,2.9,0.7,6.1-0.5,8.8c-1.2,2.7-4.2,4.8-7.1,4.2c-2.9-0.7-4.5-4.9-2.2-6.9"/>
	<path id="XMLID_128_" class="st2" d="M-296.3,329c0.2,3,0.4,6,0.5,8.9c-0.3-2.9-0.5-5.9,0.7-8.5c1.2-2.6,4.4-4.6,7-3.4"/>
	<path id="XMLID_129_" class="st2" d="M-276.5,330.4c0.9-0.6,1.4-1.9,1.1-3c-4.4-1.1-9.3,2.4-9.7,6.9c-0.1,0.9,0.1,2,1,2.3
		c1,0.4,2-0.7,2.5-1.6c1-1.7,2-3.4,3-5c0.9,2.5,3.2,4.5,5.8,5"/>
	<path id="XMLID_130_" class="st2" d="M-267.6,329.1c0.3,5.4,0.6,10.8,0.9,16.2"/>
	<path id="XMLID_131_" class="st2" d="M-268.2,329.1c-0.6,0-1.2-0.2-1.6-0.7c1.9-2.7,5.2-4.3,8.5-4.2c2.3,2,1.6,6.1-0.8,8.1
		c-2.4,2-5.7,2.3-8.8,2.1c-1.3-0.1-2.7-0.3-3.7-1.2C-272.7,331.4-270.6,330-268.2,329.1"/>
	<path id="XMLID_132_" class="st2" d="M-256,314.2c0,6.9,0.1,13.8,0.1,20.8c0.5-3.6,2.6-7,5.7-8.9c0.4,2.3,0.8,4.6,1.2,6.9"/>
	<path id="XMLID_133_" class="st2" d="M-238.7,328.4c0.2-1.3,0.5-2.6,0.7-4c-4.9,1.5-8.2,6.7-7.6,11.8c2.6-1.6,5.1-3.4,7.4-5.5
		c0.5,4.6,1,9.3,1.5,13.9c0.8-0.9,1.3-2.1,1.3-3.3"/>
	<path id="XMLID_134_" class="st2" d="M-229,312.8c-1,2-0.9,4.3-0.7,6.5c0.5,6.2,1.1,12.5,1.6,18.7"/>
	<path id="XMLID_135_" class="st2" d="M-452.2,277.5c7,1.4,14.3,1,21.1-1.4c0.4,1.2-0.7,2.3-1.7,3"/>
	<path id="XMLID_136_" class="st2" d="M-443.9,285.4c3.3-1.5,7.3-1.5,10.6,0.1"/>
	<path id="XMLID_137_" class="st2" d="M-457.1,293.5c8.4-0.8,16.8-1.5,25.1-2.3c0.5,0,1.1-0.2,1.3-0.6s-0.6-1-0.8-0.5"/>
	<path id="XMLID_138_" class="st2" d="M-452.1,40.3c2.6,0.7,5.4,0.2,7.6-1.3c-2.6,0.1-5.2,0.6-7.6,1.5"/>
	<path id="XMLID_139_" class="st2" d="M-463.1,44.3c7.6,0,15.1-0.7,22.6-2.1"/>
	<path id="XMLID_140_" class="st2" d="M-456,52.1c4.6,0,9.2-0.7,13.5-2.1"/>
	<path id="XMLID_164_" class="st2" d="M-452.1-9.7c2.6,0.7,5.4,0.2,7.6-1.3c-2.6,0.1-5.2,0.6-7.6,1.5"/>
	<path id="XMLID_163_" class="st2" d="M-463.1-5.7c7.6,0,15.1-0.7,22.6-2.1"/>
	<path id="XMLID_162_" class="st2" d="M-456,2.1c4.6,0,9.2-0.7,13.5-2.1"/>
	<path id="XMLID_141_" class="st2" d="M-273.8,345.8c-0.9,8.2-0.3,16.6,1.7,24.6c3.9,0,7.7,0,11.6,0c0.7,0,1.7-0.8,1.1-1.2"/>
	<path id="XMLID_142_" class="st2" d="M-249,368.2c2.3-1.4,5.4,0.3,6.6,2.7c1.2,2.4,0.9,5.2,0.6,7.9c0.7-3.7,2.3-7.2,4.6-10.1
		c1.3,2.6,2.2,5.4,2.8,8.3c1.6-2.5,3.2-5,4.8-7.5c0.7-1,1.8-2.2,2.9-1.7c0.9,0.4,1,1.6,1,2.6c0,2.2,0,4.3,0,6.5"/>
	<path id="XMLID_143_" class="st2" d="M-222.5,371.6c0.4-2.5,2.7-4.5,5.2-4.6c0.4,2.1,0,4.3-1.2,6.1c-0.8,1.3-2.2,2.3-3.7,2.3
		c-1.5-0.1-2.9-1.7-2.2-3.1c0.6-1.3,2.4-1.4,3.9-1.3"/>
	<path id="XMLID_144_" class="st2" d="M-214.1,369c0.4-1,2.1-0.7,2.6,0.2c0.5,1,0.3,2.1,0,3.2c-0.3,1.1-0.5,2.3,0.1,3.2
		c1.5-1.5,3-3.1,4.5-4.6c0.5-0.5,1.2-1.1,1.9-0.9c0.6,0.2,0.9,0.9,1,1.5c0.4,1.7,0.4,3.4,0.2,5.1"/>
	<path id="XMLID_145_" class="st2" d="M-197.2,372.3c1.3-1.9,2.2-5.1,0.1-6c-1.8-0.7-3.5,1.3-4,3.1c-0.7,2.3-0.7,4.9,0,7.2
		c2-1.6,3.2-4.1,3.4-6.6c1.6,0.7,2.6,2.5,3,4.3c1,4.2-0.4,8.9-3.6,11.9c-3.1,3-7.9,4.1-12.1,2.9c1.2-2.9,3-5.6,5.4-7.7"/>
	<path id="XMLID_146_" class="st2" d="M-187.6,370.3c-0.9-0.3-0.7-1.9,0.1-2.3s1.9-0.1,2.8,0.3c1.3,0.7,2.4,1.6,3.3,2.7
		c0.3,0.4,0.6,0.9,0.6,1.4c-0.1,0.4-0.3,0.7-0.6,1c-1.6,1.5-4.2,1.9-6.2,1s-3.4-3.1-3.3-5.3"/>
	<path id="XMLID_147_" class="st2" d="M-170.8,370.4c0-0.8,0-1.6,0-2.5c-2.7-0.4-5.4-0.3-8,0.2c-1.1,0.2-2.4,0.6-3,1.5
		c-1,1.5,0.2,3.7,1.9,4.1c1.7,0.4,3.5-0.6,4.6-2c1.1-1.4,1.5-3.2,1.9-4.9c0.8-3.4,1.5-6.9,0.9-10.2c-1.8,4.9-0.6,10.8,3,14.6
		c0.4-0.9,0.8-1.8,1.2-2.7"/>
	<path id="XMLID_148_" class="st2" d="M-166.3,350.6c-0.4,0.4-0.6-0.9,0-0.8s0.8,0.8,0.9,1.4c1,6.9,2.1,13.9,3.1,20.8
		c1.3-1.9,1.4-4.4,2.2-6.6c0.8-2.2,3.2-4.2,5.3-3.2c0.9,3-0.2,6.5-2.7,8.4c-1.3,1-3,1.7-4.6,1.2s-2.7-2.4-2-3.9"/>
	<path id="XMLID_149_" class="st2" d="M-455.2,363.3c6.5,0,12.9,0,19.4,0"/>
	<path id="XMLID_150_" class="st2" d="M-444.8,368.9c2.9,1.7,6.7,1.8,9.6,0.2"/>
	<path id="XMLID_151_" class="st2" d="M-443.6,375.4c3.2,0.7,6.5,0.8,9.7,0.4"/>
	<path id="XMLID_152_" class="st2" d="M-414.2,45.5c0.2-0.6,0.4-1.3,0.6-1.9"/>
	<path id="XMLID_153_" class="st2" d="M-414.1,45.5c-0.4,0.9-0.8,1.9-1.1,2.8c0-1.1-0.1-2.2-0.7-3.1c-0.6-0.9-2-1.4-2.8-0.7
		c-0.3,0.3-0.5,0.7-0.7,1.1c-0.8,2.3-1.1,5,0.3,6.9c1.4,1.9,5,2.1,6-0.1"/>
	<path id="XMLID_154_" class="st2" d="M-426.5,43.9c3.5-2.3,7-4.6,10.5-6.9c1-0.7,2.1-1.4,3.4-1.3c1.1,0.1,2,0.8,2.9,1.5
		c3.2,2.8,5.6,6.5,6.8,10.5c0.6,2.1,1,4.4,0.2,6.5c-1.3,3.2-4.8,4.8-8,6c-4,1.5-8.8,2.9-12.5,0.5c-4-2.6-4.4-8.1-4.4-12.8
		c0-1.1,0-2.4,0.8-3.2c0.6-0.6,1.4-0.8,2.2-1c2.1-0.5,4.3-0.6,6.3,0.2s3.6,2.7,3.5,4.9"/>
	<path id="XMLID_155_" class="st2" d="M-414,144.8c-1.3,3-1.1,6.6,0.4,9.5c0.3-1.5-1.9-2.5-3.2-1.7s-1.9,2.4-2.3,3.8
		c-0.3,1.1-0.6,2.2-0.4,3.2c0.6,2.4,4.3,3.1,5.7,1"/>
	<path id="XMLID_156_" class="st2" d="M-424.3,148.9c0.8-3.9,4.9-6.7,8.9-6.5s7.6,2.9,9.5,6.5s2.1,7.8,1.3,11.7
		c-1.3,6.4-5.7,12.7-12.2,14c-3.2,0.7-6.8-0.1-9.1-2.5c-2.2-2.3-2.8-5.6-3-8.7c-0.2-2.5-0.2-5.1,0.1-7.6c0.1-1.2,0.3-2.4,0.9-3.4
		c1.4-2.4,4.7-2.7,7.4-2.7"/>
	<path id="XMLID_158_" class="st2" d="M-410.6,277.9c0.6-2.3,0-4.8-1.5-6.7c-1.6,4.2-2,8.8-1.3,13.3c-1.2-1-3.3-0.6-4.2,0.7
		s-1,3.1-0.4,4.5c0.6,1.4,1.8,2.6,3.3,2.8c1.5,0.2,3.2-1,3.1-2.5"/>
	<path id="XMLID_159_" class="st2" d="M-423.2,282c3.1-3.4,6.7-6.4,10.7-8.9c1.1-0.7,2.3-1.3,3.5-1.1c1,0.1,1.9,0.8,2.6,1.4
		c4.8,4.4,6.6,11.9,4.3,18c-2.3,6.1-8.5,10.6-15.1,10.7c-1.7,0-3.4-0.2-4.9-0.9c-2.3-1.1-3.9-3.4-5-5.7c-2.1-4.3-2.9-9.1-2.4-13.8
		c2.2,0.3,4.4,0.5,6.7,0.8"/>
	<path id="XMLID_236_" class="st2" d="M-454.2,413.5c7,1.4,14.3,1,21.1-1.4c0.4,1.2-0.7,2.3-1.7,3"/>
	<path id="XMLID_235_" class="st2" d="M-445.9,421.4c3.3-1.5,7.3-1.5,10.6,0.1"/>
	<path id="XMLID_234_" class="st2" d="M-459.1,429.5c8.4-0.8,16.8-1.5,25.1-2.3c0.5,0,1.1-0.2,1.3-0.6s-0.6-1-0.8-0.5"/>
	<path id="XMLID_233_" class="st2" d="M-412.6,413.9c0.6-2.3,0-4.8-1.5-6.7c-1.6,4.2-2,8.8-1.3,13.3c-1.2-1-3.3-0.6-4.2,0.7
		s-1,3.1-0.4,4.5c0.6,1.4,1.8,2.6,3.3,2.8c1.5,0.2,3.2-1,3.1-2.5"/>
	<path id="XMLID_232_" class="st2" d="M-425.2,418c3.1-3.4,6.7-6.4,10.7-8.9c1.1-0.7,2.3-1.3,3.5-1.1c1,0.1,1.9,0.8,2.6,1.4
		c4.8,4.4,6.6,11.9,4.3,18c-2.3,6.1-8.5,10.6-15.1,10.7c-1.7,0-3.4-0.2-4.9-0.9c-2.3-1.1-3.9-3.4-5-5.7c-2.1-4.3-2.9-9.1-2.4-13.8
		c2.2,0.3,4.4,0.5,6.7,0.8"/>
	<path id="XMLID_160_" class="st2" d="M-415.7,364.6c0.2-2.7,0.3-5.4,0.2-8.1c-0.1,2.8-0.1,5.6-0.2,8.3c-1.7-1.4-4.4-0.8-5.8,0.9
		s-1.6,4.1-1.1,6.2c0.5,2.7,2.2,5.3,4.9,6c2.6,0.7,5.8-1.6,5.3-4.3c-0.6-0.1-1.2-0.1-1.8-0.2"/>
	<path id="XMLID_161_" class="st2" d="M-430.2,369.5c2.4-4.5,7.6-7.3,12.7-6.8c5.1,0.4,9.7,4.1,11.3,9c0.6,1.9,0.8,3.9,0.3,5.8
		c-1,3.5-4.5,6-8.1,6.6c-3.6,0.6-7.4-0.5-10.6-2.2c-2.7-1.4-5.5-3.9-5.2-7c0.3-2.7,3.4-4.7,5.9-3.8"/>
	<path id="XMLID_117_" class="st2" d="M-368.8,64.9c0.9,15.3,0.8,30.6-0.3,45.8"/>
	<path id="XMLID_118_" class="st2" d="M-368.9,110.6c2.5-1.2,5.3-1.6,8-1.4C-363.5,109.7-366.2,110.1-368.9,110.6"/>
	<path id="XMLID_93_" class="st2" d="M-385.2,0c0.9-1.5,0-3.6-1.4-4.6c-1.5-1-3.3-1.1-5.1-0.9c-1.5,0.2-3.1,0.5-4.3,1.4
		c-1.9,1.3-2.8,3.8-2.4,6s2.2,4.1,4.5,4.7c4.2-7.3,5.5-16.3,3.5-24.5c-0.9,6.6,0.7,13.5,4.5,18.9c0.5,0.7,2,0.8,1.6,0.1"/>
	<path id="XMLID_119_" class="st2" d="M-383.7-1.3c-0.6-3.1,3.1-6.2,6.1-5c2,3.6-1.4,8.8-5.5,8.4c0.2-1.3,0.4-2.7,0.6-4
		c-0.6,0.4-1.2,0.8-1.8,1.3"/>
	<path id="XMLID_120_" class="st2" d="M-371.1-4.7c-1.3,0.6-2.7,1.3-3.5,2.5s-0.8,3.1,0.4,3.9c0.5,0.3,1.2,0.4,1.8,0.4
		c2.8,0.1,5.6-0.6,8.1-2"/>
	<path id="XMLID_121_" class="st2" d="M-364.8-13.6c1,6,1.4,12.2,1,18.3c1.6-4.7,3.3-9.3,4.9-14c-1.5,1-2.8,2.5-3.2,4.3
		c-0.3,1.8,0.5,3.9,2.1,4.7c2.1,1,4.9-0.5,5.2-2.8"/>
	<path id="XMLID_122_" class="st2" d="M-355.9-5.4c2.4,1.2,5.8-0.9,5.8-3.6c-1-0.3-2-0.5-3-0.8c-0.8,2.5-1.6,5.2-1,7.8
		s3.4,4.9,5.9,4c2.1-0.7,3.1-3.2,3.8-5.3"/>
	<path id="XMLID_123_" class="st2" d="M-344.1-6.9c1.6,3.3,3.1,6.6,4.7,10c-0.8-3.5,0.8-7.4,3.8-9.4s7.2-1.9,10.1,0.2"/>
	<path id="XMLID_124_" class="st2" d="M-369.5,11c0-0.6,0-1.2,0-1.8c-0.4,8,0.1,16.1,1.3,24c-2-1.7-3.7-3.9-4.9-6.3
		c2.1,2.6,3.8,5.5,5,8.6c1.4-3.9,3.4-7.5,5.9-10.7"/>
	<path id="XMLID_166_" class="st2" d="M-138.3,365.5c1.9-0.1,3,2.2,3.1,4c0.1,1.9-0.2,3.9,0.8,5.5c0.2,0.3,0.4,0.5,0.7,0.6
		c0.7,0.2,1.3-0.6,1.6-1.3c1.8-3.8,3.2-7.7,4.2-11.7"/>
	<path id="XMLID_168_" class="st2" d="M-256.5,110.1c0,0.6,1,0.4,1.1-0.1c0.1-0.5-0.3-1-0.7-1.4c-0.9-0.9-1.8-1.8-2.6-2.7
		c2.4,4.3,4.6,8.7,6.5,13.3c2.2-5.3,4.4-10.7,6.5-16"/>
	<path id="XMLID_169_" class="st2" d="M-264.7,105.6c5.3-5.5,14.2-7.2,21.2-4c2,0.9,3.9,2.3,4.6,4.3c0.9,2.4,0.1,5.1-1,7.4
		c-2.2,4.5-5.8,8.6-10.5,10.2c-4.7,1.7-10.7,0.3-13.4-3.9c-1.3-2.1-1.8-4.5-2.2-6.9c-0.3-1.9-0.7-3.8-1-5.6c-0.1-0.6-0.2-1.2,0-1.8
		c0.3-0.7,1.1-1.1,1.8-1.4c2.5-1.1,5.2-2,7.8-2.6"/>
	<path id="XMLID_177_" class="st2" d="M-368.2,76c3.9,0.5,7.9-0.7,10.9-3.2"/>
	<path id="XMLID_178_" class="st2" d="M-348.2,73.1c0.6-1.2-1.2-2.4-2.5-2.2c-2.7,0.4-4.5,3.7-3.3,6.2c1.2,2.5,4.8,3.2,6.9,1.4"/>
	<path id="XMLID_179_" class="st2" d="M-340.4,76.1c-0.9-1.3,0.7-3.3,2.2-3c1.5,0.3,2.4,2.2,1.9,3.7c-0.5,1.5-1.9,2.5-3.4,2.9
		s-3.1,0.3-4.7,0.2c-0.7-3,2.1-6.3,5.2-6.2"/>
	<path id="XMLID_180_" class="st2" d="M-335.1,71.9c1.5-1.5,4.3-0.3,5.1,1.6c0.8,2,0.2,4.2-0.4,6.2c1.3-2.9,3.3-5.6,5.7-7.8
		c0.1,1.8,0.3,3.6,0.4,5.4c0.6,0.1,1.3-0.1,1.8-0.6"/>
	<path id="XMLID_181_" class="st2" d="M-317.8,78.3c1.4-2.4,1.4-5.3,1.2-8.1c-0.2-2.8-0.6-5.6,0.1-8.2s2.9-5.2,5.7-5.3
		c2.8-0.1,5.2,3.4,3.5,5.6"/>
	<path id="XMLID_182_" class="st2" d="M-322.5,68.2c3.6-0.4,7.1-0.9,10.7-1.3c0.9-0.1,1.8-0.2,2.6,0.2s1.3,1.5,0.8,2.2"/>
	<path id="XMLID_183_" class="st4" d="M-309.5,74c0,0,0,3.2,0,4.6c0-1.1,0-3.6,0-3.6"/>
	<path id="XMLID_184_" class="st2" d="M-308.8,67.7c0.1-0.7,1.3-0.9,1.6-0.2c1,0.6,0.4,2.6-0.8,2.5c-1.2-0.1-1.6-2.1-0.5-2.7
		c0.5-0.1,1-0.3,1.5-0.4"/>
	<path id="XMLID_185_" class="st2" d="M-300.5,73.9c0.4,1,2.1,0.6,2.3-0.4s-0.7-2-1.7-2.2c-1-0.1-2,0.4-2.8,1.1
		c-0.4,0.3-0.7,0.7-0.8,1.2c-0.5,1.6,1.4,3.1,3,2.8s2.8-1.8,3.5-3.3c1.2,3.2,1.5,6.7,0.6,9.9c-0.9,3.2-3.3,6.1-6.5,7.3
		c-0.6,0.2-1.2,0.4-1.8,0.2c-1.3-0.3-1.8-2-1.4-3.3c0.4-1.3,1.5-2.3,2.5-3.1"/>
	<path id="XMLID_186_" class="st2" d="M-277.9,68.4c1-0.5,1.7-1.4,1.9-2.5c1.1,4.9,2.3,9.8,3.8,14.6c2.3-5.2,4.7-10.4,7-15.5
		c0.3,1.1-0.6,2.4-1.7,2.6"/>
	<path id="XMLID_187_" class="st2" d="M-280.6,70c1.8-3.5,5.8-5.8,9.8-5.6c3.4,0.2,6.6,2.2,8.1,5.2c1.5,3,1.1,6.9-1.1,9.4
		c-2.4,2.7-6.2,3.5-9.8,3.6c-1.6,0-3.3-0.1-4.5-1.1c-1.1-1-1.5-2.6-1.7-4.1c-0.3-2.4-0.4-5,0.8-7.1s4-3.5,6.1-2.4"/>
	<path id="XMLID_116_" class="st5" d="M-376.6,174.8c-1.7,11.8-2.3,23.7-2,35.6c4.1-0.5,8.2,0,12.1,1.3c-0.4-0.9-0.7-1.8-1.1-2.6"/>
	<path id="XMLID_208_" class="st2" d="M-259.9,202.5c-0.7-0.4-0.9-1.3-0.5-2c2.6,4.7,4.6,9.8,5.7,15.1c1.6-4.3,3.3-8.6,4.9-12.8"/>
	<path id="XMLID_167_" class="st2" d="M-121.1,370.8c2.8,0.4,5.5,0.8,8.3,1.2"/>
	<path id="XMLID_210_" class="st2" d="M-101.6,367.6c-1.7-1.6-4.7-1.2-6.3,0.5c-1.6,1.7-1.8,4.4-1.1,6.6c0.6,1.8,1.9,3.5,3.6,4.3
		c1.8-1.2,2.3-3.6,2.6-5.8c0.7-6.3,0.6-12.6-0.3-18.9c0,3.9,0.1,7.8,1.1,11.6c1,3.7,3.1,7.4,6.4,9.4"/>
	<path id="XMLID_211_" class="st2" d="M-95.4,360c-0.6-0.2-1.1-0.7-1.4-1.2c1.3,4.9,2.5,9.7,3.8,14.6c0.8-1.3,1.6-2.7,2.8-3.6
		c1.2-0.9,3-1.2,4.3-0.4c0.6,0.4,1,1,1.2,1.6c1.3,3.1-1.7,7-5,6.6c-3.3-0.4-5.2-4.9-3.3-7.6"/>
	<path id="XMLID_212_" class="st2" d="M-216.1,327.8c-0.6-0.6-0.8-1.5-0.6-2.3c2.8,3.7,4.8,8,5.9,12.5c0.6-3.3,1.2-6.5,1.8-9.8
		c0.2-1.1,1.2-2.4,2-1.7"/>
	<path id="XMLID_213_" class="st2" d="M-197.9,331.1c3.2-0.5,6.4-1,9.6-1.5"/>
	<path id="XMLID_214_" class="st2" d="M-177.7,329.6c-0.2-0.4-0.5-0.8-0.7-1.2c-1.4,0-1.7,2.3-0.7,3.3c1,1,2.6,1.2,3.9,1.7
		c1.4,0.5,2.7,1.7,2.3,3.1c-0.3,1.2-1.8,1.7-3.1,1.9c-2.5,0.5-5.1,1-7.6,1.5"/>
	<path id="XMLID_215_" class="st2" d="M-163.1,330.3c-1.9,0.4-3.6,2-4.2,3.8c-0.1,0.4-0.2,0.9,0,1.2c0.3,0.6,1.1,0.8,1.8,0.8
		c3.9,0.1,7.8-1.4,10.7-4.1"/>
	<path id="XMLID_216_" class="st2" d="M-157.7,319.3c2.5,5.7,4.3,11.7,5.4,17.8c1.7-3,3.5-6.1,5.2-9.1c0.2,4.2,0.8,8.4,1.9,12.4
		c1-1.6,1.3-3.7,0.8-5.5"/>
	<path id="XMLID_217_" class="st2" d="M-144.6,331.2c2.1,1.5,5.3,1.4,7.3-0.3c0.3-0.2,0.5-0.5,0.6-0.8c0.4-1.1-1.2-2-2.4-1.8
		c-2.9,0.5-4.6,4.1-3.5,6.8c1.1,2.7,4.4,4.1,7.3,3.5s5.1-3,6.1-5.8"/>
	<path id="XMLID_218_" class="st2" d="M-128.9,329.7c0.6-0.4,1.2-0.8,1.7-1.2c0.7,2.3,1,4.7,1,7c1.9-3.6,3.8-7.2,5.6-10.9
		c0.9,3.3,1.7,6.6,2.6,10c1.7-4.1,3.6-8,5.7-11.9c1.2,2.6,2.5,5.1,3.7,7.7"/>
	<path id="XMLID_219_" class="st2" d="M-101.2,327.8c0.9,0.4,1.6-1,1.1-1.8c-0.5-0.8-1.5-1-2.4-1.1c-1.4,5.1-2,10.5-1.8,15.8
		c3-3.7,4.9-8.3,5.3-13c0.6,2.3,1.3,4.6,2.9,6.3c1.7,1.6,4.6,2.2,6.3,0.5"/>
	<path id="XMLID_125_" class="st2" d="M-142.4,360.4c23,0,45.7-11.5,68.3-7.2c2.2,0.4,4.7,1.2,5.8,3.1c0.8,1.3,0.8,3,0.8,4.5
		c0,3.4,0,6.7,0,10.1c0,1.1,0,2.3-0.4,3.4c-1.2,3.4-5.3,4.5-8.8,5.2c-18.9,3.6-37.9,7.2-57.1,7.7c-3,0.1-6.4-0.2-8-2.7
		c-0.8-1.3-1-2.9-1.1-4.4c-0.4-6.9-0.9-13.8-1.3-20.7"/>
	<path id="XMLID_225_" class="st2" d="M-169.3,282.5c1.9-0.1,3,2.2,3.1,4c0.1,1.9-0.2,3.9,0.8,5.5c0.2,0.3,0.4,0.5,0.7,0.6
		c0.7,0.2,1.3-0.6,1.6-1.3c1.8-3.8,3.2-7.7,4.2-11.7"/>
	<path id="XMLID_224_" class="st2" d="M-152.1,287.8c2.8,0.4,5.5,0.8,8.3,1.2"/>
	<path id="XMLID_223_" class="st2" d="M-132.6,284.6c-1.7-1.6-4.7-1.2-6.3,0.5c-1.6,1.7-1.8,4.4-1.1,6.6c0.6,1.8,1.9,3.5,3.6,4.3
		c1.8-1.2,2.3-3.6,2.6-5.8c0.7-6.3,0.6-12.6-0.3-18.9c0,3.9,0.1,7.8,1.1,11.6s3.1,7.4,6.4,9.4"/>
	<path id="XMLID_222_" class="st2" d="M-126.4,277c-0.6-0.2-1.1-0.7-1.4-1.2c1.3,4.9,2.5,9.7,3.8,14.6c0.8-1.3,1.6-2.7,2.8-3.6
		c1.2-0.9,3-1.2,4.3-0.4c0.6,0.4,1,1,1.2,1.6c1.3,3.1-1.7,7-5,6.6c-3.3-0.4-5.2-4.9-3.3-7.6"/>
	<path id="XMLID_221_" class="st2" d="M-173.4,277.4c23,0,45.7-11.5,68.3-7.2c2.2,0.4,4.7,1.2,5.8,3.1c0.8,1.3,0.8,3,0.8,4.5
		c0,3.4,0,6.7,0,10.1c0,1.1,0,2.3-0.4,3.4c-1.2,3.4-5.3,4.5-8.8,5.2c-18.9,3.6-37.9,7.2-57.1,7.7c-3,0.1-6.4-0.2-8-2.7
		c-0.8-1.3-1-2.9-1.1-4.4c-0.4-6.9-0.9-13.8-1.3-20.7"/>
	<path id="XMLID_165_" class="st2" d="M-220.2,319.1c37.4-2.1,74.9-4.2,112.3-6.3c5.3-0.3,10.7-0.6,15.8,1s9.8,5.4,10.8,10.6
		c1.2,5.9-2.7,11.8-7.8,14.9s-11.2,4.1-17.1,4.9c-10.6,1.5-21.3,2.9-32,3.9c-27.6,2.5-55.5,2.5-83.1-0.3c-1.8-8.9-2.4-18.1-1.8-27.2
		"/>
	<path id="XMLID_209_" class="st2" d="M-243.7,209c2.2,0.3,4.4,0.1,6.5-0.6"/>
	<path id="XMLID_220_" class="st2" d="M-226.8,199.4c-4.2,3.8-6.4,9.8-5.6,15.4c2.1-3.5,3.7-7.3,4.7-11.3c-0.1,1.8,0.2,3.5,0.7,5.2
		c0.2,0.6,0.4,1.2,0.9,1.6c1,0.9,2.6,0.5,3.6-0.4c1-0.9,1.4-2.3,1.8-3.5"/>
	<path id="XMLID_226_" class="st2" d="M-217.8,198.1c0.4,7.8,1.1,15.5,2.1,23.3"/>
	<path id="XMLID_227_" class="st2" d="M-219.2,202c2.7-0.7,6,0,7.2,2.5c1.1,2.4-0.5,5.3-2.7,6.6s-5,1.5-7.6,1.6
		c0.5-1,1.4-1.9,2.4-2.4"/>
	<path id="XMLID_228_" class="st2" d="M-207.4,202c0.3,7,1.1,13.9,2.6,20.7"/>
	<path id="XMLID_229_" class="st2" d="M-209.2,206.5c0-1.2,1.1-2.2,2.2-2.6c1.2-0.3,2.4-0.1,3.6,0.1c0.6,0.1,1.3,0.2,1.7,0.8
		c0.3,0.5,0.2,1.1,0.1,1.6c-0.8,2.6-3.1,4.5-5.7,5.4s-5.3,1-8.1,1.1"/>
	<path id="XMLID_230_" class="st2" d="M-267,200.3c24.3-0.3,48.6-2.1,72.7-5.5c0.1,4.6,0.2,9.1,0.3,13.7c0,1.5,0,3.2-1,4.3
		c-0.9,1-2.4,1.2-3.7,1.4c-4.4,0.6-8.8,1.2-13.1,1.8c-18.5,2.6-37.2,5.2-55.7,2.5c-0.6-0.1-1.2-0.2-1.6-0.6c-0.5-0.5-0.5-1.3-0.5-2
		c0-4.5,0.1-9,0.1-13.5"/>
	<path id="XMLID_196_" class="st2" d="M-329.1,330c0.3,30.7,0.7,61.3,1,92c4.9-0.1,9.8-0.3,14.6-0.4"/>
	<path id="XMLID_197_" class="st2" d="M-303,412.8c1,0.5,2.3-0.3,2.4-1.4c-4.4,2.2-6.7,7.9-5,12.5c2.7-4.1,4.9-8.6,6.5-13.2
		c2.1,3.3,3.8,6.9,5.1,10.6c0.8,0.1,1.7-0.5,1.9-1.3"/>
	<path id="XMLID_198_" class="st2" d="M-286.9,411.5c0.6,7.6,0.8,15.3,0.6,22.9c1.1-1.6,1.5-3.6,1.2-5.4"/>
	<path id="XMLID_199_" class="st2" d="M-289.3,412.8c2.3-1.2,5.1-1.4,7.6-0.6c1,0.3,2,0.8,2.4,1.7c1,2-1.1,4.1-2.9,5.2
		c-3.5,2.1-7.3,3.7-11.2,4.8"/>
	<path id="XMLID_200_" class="st2" d="M-273.5,412.9c0.7,7.1,1.4,14.2,2.1,21.3"/>
	<path id="XMLID_201_" class="st2" d="M-276,414.2c-0.6-1.4,0.6-2.9,2-3.3c1.4-0.4,2.9,0.1,4.3,0.6c0.6,0.2,1.2,0.4,1.6,0.9
		c1,1.2,0,3-1,4.2c-2,2.2-4.2,4.2-6.7,5.8c-1.2,0.8-3.5,1-3.4-0.5"/>
	<path id="XMLID_202_" class="st2" d="M-205.1,244.5c0.5,3,1,6,1.5,9c1.1-3.7,2.3-7.4,3.4-11.1"/>
	<path id="XMLID_203_" class="st2" d="M-194.7,251c2.3-0.2,4.5-0.8,6.5-1.9"/>
	<path id="XMLID_204_" class="st2" d="M-180.8,242.7c1.9,4,3.8,8,5.7,12.1c0.2-4.3,0.8-8.7,1.7-12.9c1.4,0.4,2.2,2,1.8,3.3"/>
	<path id="XMLID_205_" class="st2" d="M-171.1,246.8c1.6,1.2,3.5,2,5.5,2.2c1.3,0.1,2.7,0,3.8-0.8c1.1-0.8,1.7-2.3,1.2-3.5
		c-0.7-1.6-3-1.8-4.4-0.8c-1.4,1-1.8,2.9-1.6,4.7c0.3,2.8,2.4,5.5,5.2,5.8c2.8,0.3,5.7-2.5,4.9-5.2"/>
	<path id="XMLID_206_" class="st2" d="M-156.1,242c3.4,3,6,6.8,7.5,11c-1-3-0.3-6.5,1.6-9c0.7,3.1,2,6.1,3.8,8.7"/>
	<path id="XMLID_207_" class="st2" d="M-140.4,246c0.7,1.4,3.1,0.6,3.2-0.9c0-1.5-1.8-2.6-3.3-2.1c-0.7,0.2-1.2,0.7-1.7,1.2
		c-2,2.2-2.3,5.7-0.8,8.2c2.2-0.4,3.3-2.8,3.9-4.9c1.6-5.2,2.4-10.7,2.5-16.2c-0.4,5.3-0.1,10.6,0.8,15.7"/>
	<path id="XMLID_231_" class="st2" d="M-132.8,249c2-1.1,4-2.3,6-3.4c0.2,2.6-1.2,5.2-3.4,6.5c-0.7-1.7-0.9-3.6-0.5-5.4
		c0.2-1.1,0.7-2.2,1.7-2.6c0.5-0.2,1.1-0.2,1.7-0.2c2.5,0,5.1,0.3,7.1,1.8c2,1.4,3.2,4.3,2,6.5c-2.1-2.3-1.8-6.2,0-8.8
		c1.8-2.6,4.7-4.1,7.6-5.3c0.7-0.3,1.5-0.6,2.3-0.4c0.8,0.2,1.5,1,1.2,1.7"/>
	<path id="XMLID_237_" class="st2" d="M-205.7,237.9c33.5-1.7,67-2.7,100.6-3.2c0,6.4,0,12.8,0,19.2c-34.7,7.2-70.1,6.7-105.6,6.7
		c-0.6-9.6,0.1-15.2,2.1-24.6"/>
	<path id="XMLID_238_" class="st2" d="M-247.3,412.7c2,3.6,2.3,7.9,2.6,12c0.6-4.5,2.5-8.9,5.5-12.4"/>
	<path id="XMLID_239_" class="st2" d="M-235.3,419.5c3.9-0.7,7.7-1.3,11.6-2"/>
	<path id="XMLID_240_" class="st2" d="M-213.9,416c-2.1-2-6-1.7-7.8,0.6s-1,6.2,1.5,7.7c4.4-7.4,7.3-15.8,8.4-24.4
		c-0.6,5.3-1.3,10.5-1.9,15.8c-0.1,1-0.2,2.2,0.2,3.1c0.4,1,1.6,1.7,2.6,1.2"/>
	<path id="XMLID_241_" class="st2" d="M-206.5,416.1c-0.6,2.9-1.2,5.8-1.8,8.8c0.2-0.8,0.5-1.5,0.7-2.3"/>
	<path id="XMLID_242_" class="st2" d="M-206.2,408.3c-0.6-1.1,0.5-2.7,1.8-2.5c0.2,0.8,0.3,1.6,0,2.3s-1.2,1.3-1.8,0.9
		c0-0.6-0.1-1.3-0.1-1.9"/>
	<path id="XMLID_243_" class="st2" d="M-201.3,415c0.9,0.7,2.5,0.6,3.2-0.4c-1.6,0.6-2.9,2-3.3,3.7c2.1,0.6,4.2,1.2,6.2,1.9
		c-2.4,1.5-5.1,2.7-7.8,3.6c0.8-0.4,1.6-0.8,2.5-1.2"/>
	<path id="XMLID_244_" class="st2" d="M-185.6,394.8c0,8.6-0.5,17.2-1.5,25.8"/>
	<path id="XMLID_245_" class="st2" d="M-195.3,409.6c5,0.8,10.2,0.2,14.9-1.6"/>
	<path id="XMLID_246_" class="st2" d="M-257.3,409.8c30.2,0.2,60.4-1.7,90.4-5.7c-2,8-4.1,16-6.1,24c-29.3,3.1-58.8,4.2-88.2,3.2
		c-0.6-6.3,0.8-12.7,3.8-18.2"/>
	<path id="XMLID_247_" class="st2" d="M-305.6,147.9c2.7,4,4.2,8.8,4.5,13.6c1-3.4,1.9-6.9,2.9-10.3c0.3-1,0.6-2,1.3-2.8
		c0.7-0.8,2-1.1,2.8-0.5"/>
	<path id="XMLID_248_" class="st2" d="M-289.6,154.9c3.2,0.8,6.5,0.8,9.7,0"/>
	<path id="XMLID_249_" class="st2" d="M-274.1,158.8c0.7-0.1,1.3-0.1,2-0.2C-272.7,158.6-273.4,158.7-274.1,158.8"/>
	<path id="XMLID_250_" class="st2" d="M-266.8,151.9c1.4,0.7,3.3,0.6,4.6-0.3c0.5-0.3,0.9-0.8,1-1.3c0.3-1.2-0.8-2.3-1.9-2.6
		s-2.4,0.1-3.6,0.5c-2.2,2.7-1.1,7.3,2,9s7.2,0.7,9.5-2"/>
	<path id="XMLID_251_" class="st2" d="M-253.7,150.5c-0.8-1,0.3-2.7,1.6-2.6c1.3,0,2.3,1.3,2.5,2.5s-0.2,2.5-0.5,3.8
		c1.1-2,2.2-4,3.3-6c0.4-0.7,1.2-1.5,1.9-1.1c0.3,0.2,0.4,0.6,0.4,1c0.3,2,0.6,4,1,6c1.2,0.3,2.5-0.2,3.1-1.2"/>
	<path id="XMLID_252_" class="st2" d="M-238.8,148.9c3.1,2.7,4.9,6.9,4.8,11c1.3-3.8,2.5-7.7,3.8-11.5"/>
	<path id="XMLID_253_" class="st2" d="M-314.6,151.6c18.8-5.2,38.9-1.9,58.2-4.8c11.1-1.7,22.2-5.4,33.4-4.1
		c-0.7,5.5-1.3,11.1-2,16.6c-23,2.2-46.2,4.3-69.1,1.3c-6.8-0.9-14-2.2-20.4,0.1c-0.6-3.9-0.3-7.9,0.9-11.7"/>
	<path id="XMLID_254_" class="st2" d="M-203.9,147.1c0.3,4.4,1.8,8.8,4.3,12.4c0.9-3.5,1.7-7.1,2.6-10.6"/>
	<path id="XMLID_255_" class="st2" d="M-191.4,152.8c2.7,1.1,5.8,0.9,8.4-0.5"/>
	<path id="XMLID_256_" class="st2" d="M-179.2,149c0,7.2,0.4,14.4,1.1,21.5c0.1,1.5,0.6,3.4,2.1,3.8"/>
	<path id="XMLID_257_" class="st2" d="M-179.8,149c-0.4-0.2-0.2-1,0.3-1.1c0.5-0.1,0.9,0.2,1.3,0.5c1.9,1.4,3.8,2.8,4.9,4.9
		s0.9,5-1,6.4c-0.8,0.6-1.7,0.8-2.6,1c-1.7,0.3-3.5,0.4-4.9-0.6s-1.8-3.4-0.4-4.3"/>
	<path id="XMLID_258_" class="st2" d="M-162.5,147.7c-1.7-0.2-8.2,10.3-6.4,14.9c4-0.5,5.2-5.9,6.3-9.3c-0.6,2.5,1,3.5,1.4,4.7"/>
	<path id="XMLID_259_" class="st2" d="M-157.4,152.2c0.8-1.2,1.6-2.3,2.4-3.5c-1.5,0.9-3.1,1.9-4,3.4s-0.9,3.7,0.4,4.9
		c1.4,1.2,3.6,0.7,5.1-0.3c1.6-1,2.9-2.4,4.6-3"/>
	<path id="XMLID_260_" class="st2" d="M-148.1,141.1c1,6.1,1.5,12.3,1.6,18.5c0.8-3.5,2.6-6.8,5.2-9.3c-1.8,1.4-3.3,3.1-4.5,5
		c3.7,0.3,7.3,0.5,11,0.8"/>
	<path id="XMLID_261_" class="st2" d="M-130.2,150.3c0.1-0.6-0.2-1.2-0.7-1.6c-3,1.6-4.7,5.1-4.3,8.5c1.8-1.5,3.4-3.2,4.9-5.1
		c0.8,1.1,1.6,2.1,2.4,3.2C-128.7,153.6-129.4,152-130.2,150.3"/>
	<path id="XMLID_262_" class="st2" d="M-130.1,150.1c2.8,0.9,6.1,0.1,8.2-2c-2.5,2.3-3.9,5.7-3.7,9.1c2.2-1.4,3.9-3.4,5-5.8
		c1.1,0.3,1.7,1.5,2.1,2.6c1.5,4.2,1.7,9.1-0.9,12.7c-2.6,3.6-8.7,4.6-11.4,1.1"/>
	<path id="XMLID_263_" class="st2" d="M-111.5,152.9c2.7-0.6,4.4-3.7,3.6-6.3c-3.5,1.9-5.9,5.6-6.3,9.6c-0.1,0.6-0.1,1.2,0.2,1.8
		c0.6,1.4,2.8,1.6,4.1,0.7c1.3-0.9,2-2.4,2.6-3.9"/>
	<path id="XMLID_264_" class="st2" d="M-103.2,158.6c0.4-0.6,0.9-1.3,1.3-1.9"/>
	<path id="XMLID_265_" class="st2" d="M-97.3,147.8c2.2,5.3,2.7,11.3,1.4,16.9c-0.2,1-0.5,2-1.3,2.6c-1.7,1.5-4.7,0-5.4-2.3
		s0.2-4.6,1.1-6.7"/>
	<path id="XMLID_266_" class="st2" d="M-96.5,141.2c-0.7-0.9,0-2.5,1.1-2.6"/>
	<path id="XMLID_267_" class="st2" d="M-88.1,150.5c-1.8,0.4-3.2,2-3.4,3.8c1,2,5,0.1,5.9,2.1c0.6,1.4-1.1,2.6-2.5,3.1
		c-1.5,0.6-3,1.2-4.6,1.8"/>
	<path id="XMLID_268_" class="st2" d="M-83.3,153.5c0.1-1.8,1.8-3.4,3.6-3.4c1.8,3.3-1.1,8-4.8,8c-0.4,0-0.8-0.1-1.2-0.3
		c-0.4-0.3-0.6-0.7-0.7-1.2c-0.8-3,1.5-6.5,4.6-7"/>
	<path id="XMLID_269_" class="st2" d="M-72.1,149.7c-0.1-1,0.6-1.9,1.6-2.2c0.9,1.8,1.4,3.9,1.3,6c2.1-2.5,4.2-5,6.3-7.6
		c0.3,2.8,0.7,5.7,1.2,8.5"/>
	<path id="XMLID_270_" class="st2" d="M-210.2,147.1c1.2,4.5-1.7,10.2,1.4,13.7c1.9,2.2,5.1,2.4,8,2.4c46.5,0.3,93-0.8,139.4-3.1
		c1.5-0.1,3.1-0.2,4.2-1.2c1.3-1.2,1.4-3.1,1.4-4.9c0-5.4,0-10.8,0-16.2c-50.3,12.1-102.9,14.9-154.3,8"/>
	<path id="XMLID_302_" class="st4" d="M-155.8-202.8c0.8-0.6-0.1-2.1-1.2-1.9s-1.7,1.2-2.1,2.1c-1.7,3.6-2.3,7.8-1.7,11.8
		c3.1-3.5,5.1-7.9,5.9-12.5c-0.4,2.9,1.5,6.2,4.4,6.7s6-2.4,5.2-5.2"/>
	<path id="XMLID_303_" class="st4" d="M-139.1-205.2c2,9.8,4.4,19.6,7.3,29.2"/>
	<path id="XMLID_304_" class="st4" d="M-147-203.2c4.7-1.9,10.1-1.8,14.7,0.3c0.6,0.3,1.3,0.6,1.6,1.2c0.7,1.1,0,2.6-0.8,3.6
		c-3,4.2-7.7,7.1-12.8,7.8"/>
	<path id="XMLID_283_" class="st2" d="M-189.3-198.7c1.9-1.3,4.5-1.3,6.4,0s2.8,3.7,2.3,5.9c0.5-2.3,1.1-4.9,2.9-6.4s5.3-1.3,6,0.9
		c0.3,1,0.1,2,0.1,3c0.1,1,0.7,2.2,1.7,2.2"/>
	<path id="XMLID_305_" class="st2" d="M-121.2-206c-1.2,0.8-2,2-2.4,3.4c2.7,0.7,5.3,1.4,8,2c-0.8,4.2-4.2,7.9-8.3,8.9
		c0.3-1.8,0.8-3.6,1.7-5.2"/>
	<path id="XMLID_315_" class="st2" d="M-112-227.2c0.5,11.2,1.7,22.4,3.4,33.5c1-1.2,1.4-2.9,1.1-4.5"/>
	<path id="XMLID_335_" class="st2" d="M-119.1-211.7c7,1.6,14.2,1.8,21.3,0.6"/>
	<path id="XMLID_336_" class="st2" d="M-99.7-196.3c2.1,0.4,4.4-1.3,4.5-3.4c-4.6,1.7-7.7,6.6-7.2,11.5c3.2-4.5,6.5-9,9.7-13.5
		c0.5,3.2,0.9,6.4,1.4,9.6c0.8,0.2,1.7,0.1,2.5-0.3"/>
	<path id="XMLID_337_" class="st2" d="M-82.9-201.8c-0.6,0.3-1.2,0.6-1.6,1.1c-1.6,1.9,0.5,5,3,5.2s4.7-1.4,6.6-2.8
		c2.6-2,5.4-4.3,5.5-7.6"/>
	<path id="XMLID_338_" class="st2" d="M-71-218.3c-0.3-0.3,0.3-0.8,0.6-0.6c0.4,0.2,0.4,0.7,0.4,1.2c0,7.1,0,14.1,0,21.2
		c4.2-2.1,7.8-5.4,10.1-9.4c-1.4,0-2.6,1.3-2.6,2.6c5.1,3.6,13.1,0.2,17.8,4.3"/>
	<path id="XMLID_339_" class="st2" d="M-242.1-140c-1.1-5.5,2.7-11.5,8.1-12.9c0.9-0.2,1.9-0.3,2.6,0.2c0.8,0.6,1,1.7,1.2,2.7
		c0.3,3,0.3,6.1,0.1,9.1c1.6-3.3,3.9-6.3,6.7-8.7c1.6,2.5,2.3,5.7,1.9,8.6c-0.2,1.6-0.4,3.9,1.2,4.3"/>
	<path id="XMLID_340_" class="st2" d="M-218.2-143.2c1.8-2.7,3.4-5.5,4.9-8.3c0.8,3-1.9,6.9,0.5,8.9c0.7,0.6,1.6,0.7,2.5,0.8
		c3.8,0.6,7.6,1.1,11.4,1.7"/>
	<path id="XMLID_341_" class="st2" d="M-200.3-151.8c1.4,0.3,2.8,0.6,4.2,0.8c-1,1.3-2.7,2-4.2,1.7
		C-200.4-150.1-200.4-150.9-200.3-151.8"/>
	<path id="XMLID_342_" class="st2" d="M-213.6-140.4c1.6,1.9,4.8,1.7,6.7,0.1c1.9-1.6,2.6-4.2,2.7-6.7c0-0.5,0-1.1-0.3-1.5
		c-1-1.5-3.3-0.1-4.3,1.5c-1.4,2.3-2.1,5.6,0,7.3c1.1,1,2.8,1.1,4.2,0.9c3.7-0.5,7.1-3,8.9-6.3"/>
	<path id="XMLID_343_" class="st2" d="M-197.1-154.3c5.4,3.4,10.8,6.9,16.1,10.3"/>
	<path id="XMLID_344_" class="st2" d="M-185.6-154.1c-3.1,5.3-6.3,10.7-9.4,16c0.6-1.1,1.2-2.2,1.8-3.3"/>
	<path id="XMLID_345_" class="st2" d="M-175.9-174c0.4,0.1,0.1-0.7-0.3-0.5s-0.3,0.7-0.2,1c2,10.8,3.4,21.7,4,32.7
		c-1.5,0.6-3.2,0.9-4.8,0.6"/>
	<path id="XMLID_346_" class="st2" d="M-192-151.1c8.4-4,17.8-6,27.1-5.7"/>
	<line id="XMLID_347_" class="st4" x1="-159" y1="-147.5" x2="-158" y2="-147.5"/>
	<path id="XMLID_348_" class="st2" d="M-164.5-131.8c3.7-13.5,11.2-26,21.3-35.6"/>
	<path id="XMLID_349_" class="st2" d="M-141.7-151c1.8,0.3,3.6-1.6,3.1-3.3c-0.8-1.1-2.6-0.3-3.7,0.7c-4,3.9-6.9,9-8.2,14.5
		c0.8,0.8,2-0.2,2.7-1.1c3.1-4.2,6.2-8.5,9.2-12.7c-0.1,4.8,0,9.6,0.3,14.4c1-1.2,2-2.4,3-3.5"/>
	<path id="XMLID_350_" class="st2" d="M-126.9-152.7c-0.1,10.2-0.1,20.4-0.2,30.5c-0.1-0.6-0.3-1.2-0.4-1.8"/>
	<path id="XMLID_351_" class="st2" d="M-128.8-147.2c2.3-1.5,4.5-3,6.8-4.6c2.7,3.1,2.6,8.2-0.1,11.2c-2.7,3-7.8,3.6-11.1,1.2
		c0.6-1.8,1.7-3.4,3.2-4.5"/>
	<path id="XMLID_352_" class="st2" d="M-111.2-144.6c-0.2-1.3-0.5-2.7,0.2-3.9c1-1.8,4-1.8,5.4-0.1c1.3,1.6,1.1,4.2-0.2,5.9
		c-1.3,1.7-3.3,2.7-5.3,3.1c-1.2-2.6-1-5.8,0.5-8.2"/>
	<path id="XMLID_353_" class="st2" d="M-96.1-169.7c-1.5,9.1-2.5,18.4-3,27.6c0.9-1.9,1.9-3.8,2.8-5.7"/>
	<path id="XMLID_354_" class="st2" d="M-84.8-172.3c-2.2,7.9-3.9,16-5.2,24.1c-0.3,2-0.4,4.5,1.2,5.7"/>
	<path id="XMLID_355_" class="st2" d="M-82.3-150.4c2.6-1.2,5.2-2.4,7.8-3.7c-1.6,2-3.7,3.6-6,4.6c-1.3,0.6-3,0.9-4-0.2
		c-0.8-0.9-0.6-2.3-0.1-3.4c1.1-2.8,3.4-5.1,6.2-6.3"/>
	<path id="XMLID_356_" class="st2" d="M-53.9-178.8c1.1,0.9,0.7,2.6,0.3,4c-3.6,10.6-8.3,20.8-13.9,30.5c0-1.2,0.1-2.3,0.1-3.5"/>
	<path id="XMLID_357_" class="st2" d="M-47.5-159.5c-1.7,7.7-1.2,15.9,1.5,23.4"/>
	<path id="XMLID_358_" class="st2" d="M-49.5-156.9c1-1.6,2.1-3.2,3.1-4.8c2.8,0,5,2.9,4.7,5.7s-2.5,5.1-5.1,5.9s-5.6,0.2-8-1
		c0-1,0.6-2,1.5-2.4"/>
	<path id="XMLID_359_" class="st2" d="M-40.4-157.5c3.3-1.1,6.5-2.2,9.8-3.4c-0.5-1.6-3-1-4.3,0.1c-2.6,2.5-4.1,6.1-4,9.7
		c3.2-3.2,5.8-7,7.6-11.1c1.4,3.4,2.1,7.1,2.2,10.8c1-0.6,1.6-1.7,1.6-2.9"/>
	<path id="XMLID_360_" class="st2" d="M-21-164.6c-2.6,2.3-4.6,5.2-5.7,8.4c1.4,1.1,3.7,0.3,5.2,1.3c1.5,1,1.4,3.3,0.4,4.7
		s-2.7,2.2-4.3,2.9c-0.1-1-0.1-2.1-0.2-3.1"/>
	<path id="XMLID_361_" class="st2" d="M-14.6-159.5c1.1-0.9,1.7-2.3,1.7-3.7c-1.3,0.7-2.3,1.8-2.8,3.2c1.7,0,3.4,0,5,0.6
		c1.6,0.6,2.9,2,3,3.7c0.1,1.7-1.6,3.4-3.2,2.9c-0.5-0.2-0.7-1-0.3-1.4"/>
	<path id="XMLID_362_" class="st2" d="M-1.7-161.8c-0.4,0,0.2-0.6,0.2-0.3c0.9,6.7,0.6,13.5-0.8,20.1c-0.1,0.6-0.2,1.3,0.2,1.6
		c0.4,0.4,1.3-0.4,0.8-0.7"/>
	<path id="XMLID_363_" class="st2" d="M-1.6-162.4c3-0.1,5.7,2.9,5.2,5.9c-0.5,3-3.9,5-6.8,4c0.3-1.2,1.1-2.4,2.2-3"/>
	<path id="XMLID_364_" class="st2" d="M3.5-158.2c2.4-0.5,4.2-2.3,6.4-3.3s5.4-0.8,6.3,1.4c0.4,1,0.2,2.2-0.3,3.2
		c-1.1,2.4-4,4-6.5,3s-2.9-5.2-0.5-6.2"/>
	<path id="XMLID_365_" class="st2" d="M15.7-164.5c3.2,3.3,5.9,7.1,8,11.2c-0.3-3.5-0.4-7.2,0.9-10.5c1.3-3.3,4.2-6.1,7.7-6.6
		c1.1-0.1,2.3-0.1,3.2-0.7c0.6-0.5,1-1.2,1.3-1.9c1.9-4,3.5-8.2,4.7-12.5c0.2,8.2,0.4,16.4,0.6,24.6c-0.4-0.6-0.8-1.2-1.2-1.8"/>
	<path id="XMLID_366_" class="st2" d="M28.7-171.6c5.7-3.3,12-5.5,18.6-6.4c-1.3-0.3-2.5-0.5-3.8-0.8"/>
</g>
<g id="Layer_1">
	<rect id="XMLID_376_" class="st6" width="320" height="320"/>
</g>
<g id="Layer_3">
	<path id="XMLID_475_" d="M108,244.7c-0.8,0-1.6-0.3-2.1-0.9c-0.6-0.6-0.9-1.4-0.8-2.2l0.4-14.1l-84.9-49c-0.9-0.5-1.5-1.5-1.5-2.5
		l-1.2-74.7c0-1.1,0.6-2.1,1.6-2.7l93-50.8c0.4-0.2,0.9-0.4,1.4-0.4c0.5,0,1,0.1,1.4,0.4L178,82.3l23.9-14c0.5-0.3,1-0.4,1.5-0.4
		c0.3,0,0.5,0,0.8,0.1c0.8,0.2,1.4,0.7,1.8,1.4l20.7,37.1l7.8-10.5c0.6-0.8,1.5-1.2,2.4-1.2c0.3,0,0.6,0,0.9,0.1
		c1.2,0.4,2.1,1.5,2.1,2.8l2.2,67.5c0,0.5-0.1,1-0.3,1.4l-11,21.7c-0.3,0.5-0.7,0.9-1.1,1.2l-91.9,54.8c-0.5,0.3-1,0.4-1.5,0.4
		C136.3,244.9,108,244.7,108,244.7z"/>
	<polygon id="XMLID_443_" class="st7" points="228.2,187.1 226.2,112.2 236.9,97.8 239.1,165.4 	"/>
	<polygon id="XMLID_371_" class="st8" points="228.2,187.1 136.3,241.9 22,175.9 116,117.9 	"/>
	<polygon id="XMLID_372_" class="st9" points="113.8,50.4 20.8,101.2 22,175.9 116,117.9 	"/>
	<polygon id="XMLID_414_" class="st10" points="228.2,187.1 226.2,112.2 113.8,50.4 116,117.9 	"/>
</g>
<g id="Layer_4">
	<path id="XMLID_484_" class="st6" d="M236.4,215.8c-5.8-9.3-17.9-14.5-26.1-10.2c-7.9,4.1-8.4,16.8-2.6,26.1
		c1.4,2.3,6.8,7.7,8.7,9.3c0-1.8,0.2-3.5,0.7-4.9c2-6.2,14.1-11,22.3-4c0.8,0.7,1.6,1.4,2.4,2C242.9,228.8,239.7,221,236.4,215.8z"
		/>
	<path id="XMLID_465_" class="st11" d="M210.2,221.6c2.7,0.9,5,2,7.6,3.1"/>
	<path id="XMLID_467_" class="st11" d="M212.6,227.2c0.7-1.9,2.8-6.5,3.5-8"/>
	<path id="XMLID_630_" d="M278.2,232.4c-1.3-1.3-2.6-2.5-3.8-3.6c-2.5-2.3-4.8-4.5-7-7.5c-1.6-2.2-3.3-5.1-5.4-9c0,0,0,0,0,0
		c-1.4-2.7-2.9-5.7-4.4-8.8c-2.1-4.3-4.2-8.7-6.7-13.2c-1-1.8-2.1-3.9-3.2-6.1c-6.6-12.7-15.5-30.2-29.3-40.8
		c-1.7-1.4-3.3-2.6-4.7-3.7c-9.4-7.4-12.6-9.9-28-16.4c-0.4-0.2-0.8-0.2-1.2-0.2c-0.6,0-1.2,0.2-1.7,0.5l-98,64.7
		c-0.7,0.5-1.2,1.2-1.3,2c-0.1,0.8,0.1,1.7,0.6,2.3c7.5,9.3,25,23.6,34.8,31.3c12.1,9.5,26.2,20.5,41.2,30.6
		c11.2,7.5,18.8,12.5,27.1,17.2c0,0,0,0,0,0c3.1,1.7,6.2,3.4,9.5,5l1.3,0.6c9.3,4.6,22,11,30.5,11c0,0,0,0,0,0
		c3.1,0,5.5-0.8,7.3-2.5c3.4-3.1,5.1-6.3,5-9.6c0-6.2-6-12-15.1-20.2c-1.6-1.5-3-3.3-4.1-5.3c-2.5-4.6-3.3-10-2-13.9
		c0.8-2.6,5-5.4,9.9-5.4c2.5,0,4.8,0.7,6.7,2.1c0,0,0,0,0,0c0.3,0.2,0.6,0.4,0.8,0.6c9.2,7.9,13.6,11.4,19.1,14.6
		c5.4,3.2,9.6,5.1,13.6,5.1c0,0,0,0,0,0c2.9,0,5.5-1,8.1-3c2.6-2,4-4.8,4.2-7.9C282.7,238.9,280.5,234.7,278.2,232.4z"/>
	<path id="XMLID_632_" class="st12" d="M244.2,217.5c3.7-2.8,11.3-5.6,15.2-3.9c-3.4-6.6-6.9-14.3-11-22c-6.3-11.7-16-33.9-31.7-46
		c-13.3-10.3-14.7-12.3-32-19.7l-98,64.7c8,10,28.5,26.3,34.3,30.9c12,9.5,26.2,20.5,41,30.5c10.6,7.2,18.4,12.3,26.9,17
		c1.8-20.2,23-26.6,30.3-16.8c-3-5.5-3.7-11.8-2.2-16.2c1.9-6,13.1-10.6,21.3-4.8C238.8,225.9,240.7,220.1,244.2,217.5z"/>
	<path id="XMLID_634_" class="st13" d="M258,246.3c8.3,4.8,13.1,6.5,18.3,2.3c5.7-4.6,2.2-11.7-0.3-14.2c-3.8-3.9-7.5-6.6-11.1-11.5
		c-1.9-2.7-3.8-5.9-5.6-9.4c-3.9-1.6-11.4,1.1-15.2,3.9c-3.4,2.6-5.3,8.4-5.9,13.7c0.4,0.3,0.7,0.5,1,0.8
		C248.3,239.7,252.6,243.2,258,246.3z"/>
	<path id="XMLID_636_" class="st13" d="M188.9,269c3,1.7,6.1,3.3,9.4,5c11.3,5.7,29.7,15.2,35.7,9.7c8.3-7.7,3.3-13.3-10-25.3
		c-2-1.8-3.6-3.9-4.8-6.1C212,242.4,190.8,248.8,188.9,269z"/>
	
		<ellipse id="XMLID_466_" transform="matrix(0.7158 -0.6983 0.6983 0.7158 -125.8728 235.3204)" class="st14" cx="226.2" cy="272.3" rx="6.1" ry="4.7"/>
	
		<ellipse id="XMLID_474_" transform="matrix(0.7731 -0.6342 0.6342 0.7731 -126.8042 207.6116)" class="st14" cx="226.8" cy="281.1" rx="2.7" ry="2.4"/>
	
		<ellipse id="XMLID_476_" transform="matrix(0.7731 -0.6342 0.6342 0.7731 -124.1309 210.9895)" class="st14" cx="232.9" cy="279" rx="2.6" ry="2.3"/>
	
		<ellipse id="XMLID_477_" transform="matrix(0.7731 -0.6342 0.6342 0.7731 -120.4209 210.6884)" class="st14" cx="234.3" cy="273.7" rx="2" ry="1.8"/>
	
		<ellipse id="XMLID_481_" transform="matrix(0.7158 -0.6983 0.6983 0.7158 -90.4891 254.8587)" class="st14" cx="267.9" cy="238.6" rx="5.6" ry="4.7"/>
	
		<ellipse id="XMLID_480_" transform="matrix(0.7731 -0.6342 0.6342 0.7731 -95.8765 226.4373)" class="st14" cx="268.6" cy="247.2" rx="2.4" ry="2.4"/>
	
		<ellipse id="XMLID_479_" transform="matrix(0.7731 -0.6342 0.6342 0.7731 -93.0571 229.699)" class="st14" cx="274.5" cy="244.9" rx="2.4" ry="2.2"/>
	
		<ellipse id="XMLID_478_" transform="matrix(0.7731 -0.6342 0.6342 0.7731 -88.9575 229.1551)" class="st14" cx="275.8" cy="238.9" rx="1.9" ry="1.7"/>
	<path id="XMLID_471_" d="M289.7,301.8c-2.2,0-4.4-0.7-6.5-2c-10.5-6.7-34.7-27.6-46.7-42.5c-5.3-6.7-9.9-14.3-14-21
		c-4.7-7.8-9.1-15.2-13.3-18.7c-4.5-3.7-6.8-7.9-7-12.5c-0.2-7.2,5.2-12.5,5.8-13c1.9-1.8,4.3-2.8,6.8-2.8c3.8,0,7.8,2.2,11.7,6.6
		c5.5,6,8.7,12.8,12.1,19.9c3.8,8.1,7.8,16.4,15.6,25.2c18.7,21.3,38.8,35.4,44.6,39.2c3.4,2.3,4.6,6.6,3.1,11.4
		C300.4,296.5,295.9,301.8,289.7,301.8C289.7,301.8,289.7,301.8,289.7,301.8z"/>
	<path id="XMLID_463_" class="st13" d="M211.1,215.2c8.4,6.9,16.2,25.7,27.8,40.1s35.6,35.3,45.9,41.9s19.1-10,12.3-14.5
		S270.6,264.1,252,243c-15.1-17.1-16.5-32.9-27.6-45.1c-7.7-8.4-12.5-5.2-14.2-3.6S199.5,205.7,211.1,215.2z"/>
	<polygon id="XMLID_394_" class="st15" points="136.3,241.9 136.1,165 20.8,101.2 22,175.9 	"/>
	<g id="XMLID_331_">
		<g id="XMLID_402_">
			<polygon id="XMLID_403_" class="st12" points="55.2,147.3 55.2,149.9 57.5,151.2 57.4,174.8 48.3,169.5 48.3,148.6 43.8,145.9 
				43.7,166.9 34.6,161.6 34.7,135.4 			"/>
		</g>
		<g id="XMLID_398_">
			<path id="XMLID_399_" class="st12" d="M82.6,165.7l2.3,1.3l-0.1,23.6l-9.1-5.3l0-10.5l-4.6-2.6l0,10.5l-9.1-5.3l0.1-23.6l2.3,1.3
				l0-2.6l18.2,10.5L82.6,165.7z M75.7,169.6l0-5.2l-4.6-2.6l0,5.2L75.7,169.6"/>
		</g>
		<g id="XMLID_390_">
			<path id="XMLID_395_" class="st12" d="M109.9,181.5l2.3,1.3l0,10.5l-2.3-1.3l0,2.6L98.5,188l0,10.5l-9.1-5.3l0.1-26.2l20.5,11.9
				L109.9,181.5z M103.1,185.4l0-5.2l-4.6-2.6l0,5.2L103.1,185.4"/>
		</g>
	</g>
	<polygon id="XMLID_450_" class="st16" points="113.8,50.4 20.8,101.2 136.1,165 226.4,112.1 	"/>
	<path id="XMLID_473_" d="M136.3,244.9c0,0-28.3-0.2-28.3-0.2c-0.8,0-1.6-0.3-2.1-0.9c-0.6-0.6-0.9-1.4-0.8-2.2l2.3-76.7
		c0-1.6,1.4-2.9,3-2.9H136"/>
	<path id="XMLID_460_" d="M133.4,166.3l-20-43.1c-0.7-1.4-0.1-3.1,1.2-3.9l87.3-51c0.5-0.3,1-0.4,1.5-0.4c0.3,0,0.5,0,0.8,0.1
		c0.8,0.2,1.4,0.7,1.8,1.4l20.4,42.7"/>
	<polygon id="XMLID_327_" class="st7" points="226.4,112.1 136.1,165 116.1,121.9 203.4,70.9 	"/>
	<polygon id="XMLID_373_" class="st7" points="136.3,241.9 136.1,165 110.3,165 108,241.7 	"/>
	<g id="XMLID_273_">
		<g id="XMLID_320_">
			<path id="XMLID_384_" class="st6" d="M91.7,89.5c5.7,2.1,20.3,6.1,33.2,11.4C147,63,169,42,202,27c-10.9,4.9-84.3-16.8-91-20
				C109.4,39.2,98.1,72.9,91.7,89.5z"/>
		</g>
		<g id="XMLID_311_">
			<g id="XMLID_385_">
				<path id="XMLID_314_" class="st17" d="M109.7,73.1c3.9-0.8,7.7-1.2,11.7-1.4c-0.2-0.5-0.4-1.1-0.7-1.6c-3.3,3.3-6.6,6.6-10,9.8
					c-0.6,0.6-0.1,1.6,0.7,1.6c3.9,0,7.7,0.4,11.6-0.1c1.2-0.2,0.7-2-0.5-1.8c-3.7,0.5-7.4,0.1-11,0c0.2,0.5,0.4,1.1,0.7,1.6
					c3.4-3.2,6.7-6.4,10-9.8c0.6-0.6,0.2-1.6-0.7-1.6c-4.1,0.2-8.2,0.6-12.2,1.5C108,71.5,108.5,73.3,109.7,73.1L109.7,73.1z"/>
			</g>
		</g>
		<g id="XMLID_312_">
			<g id="XMLID_633_">
				<path id="XMLID_639_" class="st17" d="M137.9,29.3c4.3,0.2,8.7,0.2,13,0.4c-0.3-0.5-0.6-1.1-0.9-1.6c-3.8,5.6-11.5,9-17.2,12.3
					c-0.9,0.5-0.5,2,0.5,2c5.3,0,10.8,0.5,16-0.1c1.3-0.2,1.3-2.3,0-2.1c-5.3,0.6-10.7,0.1-16,0.1c0.2,0.7,0.4,1.3,0.5,2
					c6.1-3.5,13.9-7.1,18-13c0.5-0.7-0.2-1.5-0.9-1.6c-4.3-0.2-8.7-0.2-13-0.4C136.6,27.1,136.6,29.2,137.9,29.3L137.9,29.3z"/>
			</g>
		</g>
		<g id="XMLID_313_">
			<g id="XMLID_368_">
				<path id="XMLID_318_" class="st17" d="M121.3,53.4c3.9-1.1,7.8-1.3,11.8-0.6c-0.2-0.5-0.4-1-0.6-1.5c-2,3.5-4.6,6.5-7.9,9
					c-0.8,0.6-0.6,1.9,0.5,2c3.2,0.1,6.5,0.2,9.7,0.3c1.4,0,1.3-2.1,0-2.1c-3.2-0.1-6.5-0.2-9.7-0.3c0.2,0.7,0.4,1.3,0.5,2
					c3.5-2.7,6.4-5.9,8.6-9.8c0.3-0.5,0.1-1.4-0.6-1.5c-4.4-0.8-8.6-0.6-12.9,0.6C119.5,51.7,120,53.8,121.3,53.4L121.3,53.4z"/>
			</g>
		</g>
		<g id="XMLID_317_">
			<g id="XMLID_374_">
				<path id="XMLID_321_" class="st17" d="M97.7,88.3c10.1-22.7,17.3-46.5,21.3-71c0.3-1.9-2.6-2.7-2.9-0.8c-4,24.2-11,47.8-21,70.3
					C94.3,88.5,96.9,90.1,97.7,88.3L97.7,88.3z"/>
			</g>
		</g>
		<g id="XMLID_322_">
			<g id="XMLID_379_">
				<path id="XMLID_323_" class="st17" d="M123.5,97.1c13.2-26.1,35.6-48.6,59.1-65.6c1.5-1.1,0.1-3.7-1.5-2.6
					c-23.9,17.3-46.7,40.2-60.2,66.7C120,97.3,122.6,98.8,123.5,97.1L123.5,97.1z"/>
			</g>
		</g>
	</g>
	<polygon id="XMLID_319_" class="st7" points="74.1,92.5 58.2,83.8 26.6,101 42.5,109.7 	"/>
	<line id="XMLID_329_" class="st18" x1="66.2" y1="92.5" x2="44.3" y2="104.5"/>
	<line id="XMLID_332_" class="st18" x1="62" y1="90" x2="48.9" y2="97.2"/>
	<line id="XMLID_334_" class="st18" x1="44.5" y1="99.6" x2="40.1" y2="102"/>
	<line id="XMLID_333_" class="st18" x1="57.6" y1="87.8" x2="41" y2="96.9"/>
</g>
</svg>
